<mxfile host="app.diagrams.net" modified="2023-10-17T07:34:34.779Z" agent="Mozilla/5.0 (Windows NT 10.0; Win64; x64) AppleWebKit/537.36 (KHTML, like Gecko) Chrome/118.0.0.0 Safari/537.36 Edg/118.0.2088.46" etag="tIs_sLkb1SR8BUUc8c1v" version="22.0.4" type="github">
  <diagram name="Page-1" id="13e1069c-82ec-6db2-03f1-153e76fe0fe0">
    <mxGraphModel dx="1733" dy="1840" grid="1" gridSize="10" guides="1" tooltips="1" connect="1" arrows="1" fold="1" page="1" pageScale="1" pageWidth="1100" pageHeight="850" background="none" math="0" shadow="0">
      <root>
        <mxCell id="0" />
        <mxCell id="1" parent="0" />
        <mxCell id="PzoKav7dEEls6F5gKGj7-4" value="loginRegister.html" style="shape=umlLifeline;perimeter=lifelinePerimeter;whiteSpace=wrap;html=1;container=1;dropTarget=0;collapsible=0;recursiveResize=0;outlineConnect=0;portConstraint=eastwest;newEdgeStyle={&quot;edgeStyle&quot;:&quot;elbowEdgeStyle&quot;,&quot;elbow&quot;:&quot;vertical&quot;,&quot;curved&quot;:0,&quot;rounded&quot;:0};" vertex="1" parent="1">
          <mxGeometry x="360" y="-30" width="100" height="430" as="geometry" />
        </mxCell>
        <mxCell id="PzoKav7dEEls6F5gKGj7-5" value="" style="html=1;points=[[0,0,0,0,5],[0,1,0,0,-5],[1,0,0,0,5],[1,1,0,0,-5]];perimeter=orthogonalPerimeter;outlineConnect=0;targetShapes=umlLifeline;portConstraint=eastwest;newEdgeStyle={&quot;curved&quot;:0,&quot;rounded&quot;:0};" vertex="1" parent="PzoKav7dEEls6F5gKGj7-4">
          <mxGeometry x="45" y="80" width="10" height="120" as="geometry" />
        </mxCell>
        <mxCell id="PzoKav7dEEls6F5gKGj7-231" value="" style="html=1;points=[[0,0,0,0,5],[0,1,0,0,-5],[1,0,0,0,5],[1,1,0,0,-5]];perimeter=orthogonalPerimeter;outlineConnect=0;targetShapes=umlLifeline;portConstraint=eastwest;newEdgeStyle={&quot;curved&quot;:0,&quot;rounded&quot;:0};" vertex="1" parent="PzoKav7dEEls6F5gKGj7-4">
          <mxGeometry x="45" y="270" width="10" height="108" as="geometry" />
        </mxCell>
        <mxCell id="PzoKav7dEEls6F5gKGj7-16" value="数据库" style="shape=umlLifeline;perimeter=lifelinePerimeter;whiteSpace=wrap;html=1;container=1;dropTarget=0;collapsible=0;recursiveResize=0;outlineConnect=0;portConstraint=eastwest;newEdgeStyle={&quot;edgeStyle&quot;:&quot;elbowEdgeStyle&quot;,&quot;elbow&quot;:&quot;vertical&quot;,&quot;curved&quot;:0,&quot;rounded&quot;:0};" vertex="1" parent="1">
          <mxGeometry x="645" y="-30" width="100" height="430" as="geometry" />
        </mxCell>
        <mxCell id="PzoKav7dEEls6F5gKGj7-17" value="" style="html=1;points=[[0,0,0,0,5],[0,1,0,0,-5],[1,0,0,0,5],[1,1,0,0,-5]];perimeter=orthogonalPerimeter;outlineConnect=0;targetShapes=umlLifeline;portConstraint=eastwest;newEdgeStyle={&quot;curved&quot;:0,&quot;rounded&quot;:0};" vertex="1" parent="PzoKav7dEEls6F5gKGj7-16">
          <mxGeometry x="45" y="120" width="10" height="60" as="geometry" />
        </mxCell>
        <mxCell id="PzoKav7dEEls6F5gKGj7-27" value="匹配查询" style="html=1;align=left;spacingLeft=2;endArrow=block;rounded=0;edgeStyle=orthogonalEdgeStyle;curved=0;rounded=0;" edge="1" parent="PzoKav7dEEls6F5gKGj7-16">
          <mxGeometry relative="1" as="geometry">
            <mxPoint x="55" y="130" as="sourcePoint" />
            <Array as="points">
              <mxPoint x="85" y="160" />
            </Array>
            <mxPoint x="60" y="160" as="targetPoint" />
          </mxGeometry>
        </mxCell>
        <mxCell id="PzoKav7dEEls6F5gKGj7-20" value="" style="shape=umlLifeline;perimeter=lifelinePerimeter;whiteSpace=wrap;html=1;container=1;dropTarget=0;collapsible=0;recursiveResize=0;outlineConnect=0;portConstraint=eastwest;newEdgeStyle={&quot;curved&quot;:0,&quot;rounded&quot;:0};participant=umlActor;" vertex="1" parent="1">
          <mxGeometry x="220" y="-30" width="20" height="430" as="geometry" />
        </mxCell>
        <mxCell id="PzoKav7dEEls6F5gKGj7-21" value="" style="html=1;points=[[0,0,0,0,5],[0,1,0,0,-5],[1,0,0,0,5],[1,1,0,0,-5]];perimeter=orthogonalPerimeter;outlineConnect=0;targetShapes=umlLifeline;portConstraint=eastwest;newEdgeStyle={&quot;curved&quot;:0,&quot;rounded&quot;:0};" vertex="1" parent="PzoKav7dEEls6F5gKGj7-20">
          <mxGeometry x="5" y="60" width="10" height="80" as="geometry" />
        </mxCell>
        <mxCell id="PzoKav7dEEls6F5gKGj7-230" value="" style="html=1;points=[[0,0,0,0,5],[0,1,0,0,-5],[1,0,0,0,5],[1,1,0,0,-5]];perimeter=orthogonalPerimeter;outlineConnect=0;targetShapes=umlLifeline;portConstraint=eastwest;newEdgeStyle={&quot;curved&quot;:0,&quot;rounded&quot;:0};" vertex="1" parent="PzoKav7dEEls6F5gKGj7-20">
          <mxGeometry x="5" y="260" width="10" height="80" as="geometry" />
        </mxCell>
        <mxCell id="PzoKav7dEEls6F5gKGj7-22" style="edgeStyle=orthogonalEdgeStyle;rounded=0;orthogonalLoop=1;jettySize=auto;html=1;curved=0;" edge="1" parent="1">
          <mxGeometry relative="1" as="geometry">
            <mxPoint x="235" y="52" as="sourcePoint" />
            <mxPoint x="400" y="52" as="targetPoint" />
          </mxGeometry>
        </mxCell>
        <mxCell id="PzoKav7dEEls6F5gKGj7-23" value="输入用户名和密码" style="text;html=1;align=center;verticalAlign=middle;resizable=0;points=[];autosize=1;strokeColor=none;fillColor=none;" vertex="1" parent="1">
          <mxGeometry x="250" y="20" width="120" height="30" as="geometry" />
        </mxCell>
        <mxCell id="PzoKav7dEEls6F5gKGj7-7" value="" style="html=1;align=left;spacingLeft=2;endArrow=block;rounded=0;edgeStyle=orthogonalEdgeStyle;rounded=0;" edge="1" target="PzoKav7dEEls6F5gKGj7-16" parent="1">
          <mxGeometry x="-0.0034" relative="1" as="geometry">
            <mxPoint x="550" y="90" as="sourcePoint" />
            <Array as="points">
              <mxPoint x="550" y="90" />
            </Array>
            <mxPoint x="694.5000000000002" y="110" as="targetPoint" />
            <mxPoint as="offset" />
          </mxGeometry>
        </mxCell>
        <mxCell id="PzoKav7dEEls6F5gKGj7-24" value="&amp;nbsp;发送用户名和密码" style="text;html=1;align=center;verticalAlign=middle;resizable=0;points=[];autosize=1;strokeColor=none;fillColor=none;" vertex="1" parent="1">
          <mxGeometry x="560" y="68" width="120" height="30" as="geometry" />
        </mxCell>
        <mxCell id="PzoKav7dEEls6F5gKGj7-28" style="edgeStyle=orthogonalEdgeStyle;rounded=0;orthogonalLoop=1;jettySize=auto;html=1;curved=0;exitX=0;exitY=1;exitDx=0;exitDy=-5;exitPerimeter=0;" edge="1" parent="1" source="PzoKav7dEEls6F5gKGj7-17">
          <mxGeometry relative="1" as="geometry">
            <mxPoint x="550" y="145" as="targetPoint" />
            <Array as="points">
              <mxPoint x="585" y="145" />
              <mxPoint x="585" y="145" />
            </Array>
          </mxGeometry>
        </mxCell>
        <mxCell id="PzoKav7dEEls6F5gKGj7-29" value="返回查询结果" style="text;html=1;align=center;verticalAlign=middle;resizable=0;points=[];autosize=1;strokeColor=none;fillColor=none;" vertex="1" parent="1">
          <mxGeometry x="555" y="118" width="100" height="30" as="geometry" />
        </mxCell>
        <mxCell id="PzoKav7dEEls6F5gKGj7-141" value="loginRegister.py" style="shape=umlLifeline;perimeter=lifelinePerimeter;whiteSpace=wrap;html=1;container=1;dropTarget=0;collapsible=0;recursiveResize=0;outlineConnect=0;portConstraint=eastwest;newEdgeStyle={&quot;edgeStyle&quot;:&quot;elbowEdgeStyle&quot;,&quot;elbow&quot;:&quot;vertical&quot;,&quot;curved&quot;:0,&quot;rounded&quot;:0};" vertex="1" parent="1">
          <mxGeometry x="490" y="-30" width="100" height="430" as="geometry" />
        </mxCell>
        <mxCell id="PzoKav7dEEls6F5gKGj7-142" value="" style="html=1;points=[[0,0,0,0,5],[0,1,0,0,-5],[1,0,0,0,5],[1,1,0,0,-5]];perimeter=orthogonalPerimeter;outlineConnect=0;targetShapes=umlLifeline;portConstraint=eastwest;newEdgeStyle={&quot;curved&quot;:0,&quot;rounded&quot;:0};" vertex="1" parent="PzoKav7dEEls6F5gKGj7-141">
          <mxGeometry x="45" y="100" width="10" height="80" as="geometry" />
        </mxCell>
        <mxCell id="PzoKav7dEEls6F5gKGj7-232" value="" style="html=1;points=[[0,0,0,0,5],[0,1,0,0,-5],[1,0,0,0,5],[1,1,0,0,-5]];perimeter=orthogonalPerimeter;outlineConnect=0;targetShapes=umlLifeline;portConstraint=eastwest;newEdgeStyle={&quot;curved&quot;:0,&quot;rounded&quot;:0};" vertex="1" parent="PzoKav7dEEls6F5gKGj7-141">
          <mxGeometry x="45" y="290" width="10" height="80" as="geometry" />
        </mxCell>
        <mxCell id="PzoKav7dEEls6F5gKGj7-146" value="" style="endArrow=classic;html=1;rounded=0;" edge="1" parent="1">
          <mxGeometry width="50" height="50" relative="1" as="geometry">
            <mxPoint x="420" y="68" as="sourcePoint" />
            <mxPoint x="539.5000000000002" y="68" as="targetPoint" />
            <Array as="points">
              <mxPoint x="470" y="68" />
            </Array>
          </mxGeometry>
        </mxCell>
        <mxCell id="PzoKav7dEEls6F5gKGj7-147" value="判断用户名和密码" style="text;html=1;align=center;verticalAlign=middle;resizable=0;points=[];autosize=1;strokeColor=none;fillColor=none;" vertex="1" parent="1">
          <mxGeometry x="420" y="38" width="120" height="30" as="geometry" />
        </mxCell>
        <mxCell id="PzoKav7dEEls6F5gKGj7-148" style="edgeStyle=orthogonalEdgeStyle;rounded=0;orthogonalLoop=1;jettySize=auto;html=1;curved=0;exitX=0;exitY=1;exitDx=0;exitDy=-5;exitPerimeter=0;" edge="1" parent="1">
          <mxGeometry relative="1" as="geometry">
            <mxPoint x="540" y="147" as="sourcePoint" />
            <mxPoint x="415" y="152" as="targetPoint" />
            <Array as="points">
              <mxPoint x="540" y="152" />
            </Array>
          </mxGeometry>
        </mxCell>
        <mxCell id="PzoKav7dEEls6F5gKGj7-149" value="登录结果" style="text;html=1;align=center;verticalAlign=middle;resizable=0;points=[];autosize=1;strokeColor=none;fillColor=none;" vertex="1" parent="1">
          <mxGeometry x="440" y="130" width="70" height="30" as="geometry" />
        </mxCell>
        <mxCell id="PzoKav7dEEls6F5gKGj7-150" value="User.html" style="shape=umlLifeline;perimeter=lifelinePerimeter;whiteSpace=wrap;html=1;container=1;dropTarget=0;collapsible=0;recursiveResize=0;outlineConnect=0;portConstraint=eastwest;newEdgeStyle={&quot;edgeStyle&quot;:&quot;elbowEdgeStyle&quot;,&quot;elbow&quot;:&quot;vertical&quot;,&quot;curved&quot;:0,&quot;rounded&quot;:0};" vertex="1" parent="1">
          <mxGeometry x="1040" y="-50" width="100" height="750" as="geometry" />
        </mxCell>
        <mxCell id="PzoKav7dEEls6F5gKGj7-151" value="" style="html=1;points=[[0,0,0,0,5],[0,1,0,0,-5],[1,0,0,0,5],[1,1,0,0,-5]];perimeter=orthogonalPerimeter;outlineConnect=0;targetShapes=umlLifeline;portConstraint=eastwest;newEdgeStyle={&quot;curved&quot;:0,&quot;rounded&quot;:0};" vertex="1" parent="PzoKav7dEEls6F5gKGj7-150">
          <mxGeometry x="45" y="80" width="10" height="100" as="geometry" />
        </mxCell>
        <mxCell id="PzoKav7dEEls6F5gKGj7-243" value="" style="html=1;points=[[0,0,0,0,5],[0,1,0,0,-5],[1,0,0,0,5],[1,1,0,0,-5]];perimeter=orthogonalPerimeter;outlineConnect=0;targetShapes=umlLifeline;portConstraint=eastwest;newEdgeStyle={&quot;curved&quot;:0,&quot;rounded&quot;:0};" vertex="1" parent="PzoKav7dEEls6F5gKGj7-150">
          <mxGeometry x="45" y="395" width="10" height="110" as="geometry" />
        </mxCell>
        <mxCell id="PzoKav7dEEls6F5gKGj7-284" value="" style="html=1;points=[[0,0,0,0,5],[0,1,0,0,-5],[1,0,0,0,5],[1,1,0,0,-5]];perimeter=orthogonalPerimeter;outlineConnect=0;targetShapes=umlLifeline;portConstraint=eastwest;newEdgeStyle={&quot;curved&quot;:0,&quot;rounded&quot;:0};" vertex="1" parent="PzoKav7dEEls6F5gKGj7-150">
          <mxGeometry x="45" y="600" width="10" height="110" as="geometry" />
        </mxCell>
        <mxCell id="PzoKav7dEEls6F5gKGj7-152" value="database" style="shape=umlLifeline;perimeter=lifelinePerimeter;whiteSpace=wrap;html=1;container=1;dropTarget=0;collapsible=0;recursiveResize=0;outlineConnect=0;portConstraint=eastwest;newEdgeStyle={&quot;edgeStyle&quot;:&quot;elbowEdgeStyle&quot;,&quot;elbow&quot;:&quot;vertical&quot;,&quot;curved&quot;:0,&quot;rounded&quot;:0};" vertex="1" parent="1">
          <mxGeometry x="1325" y="-50" width="100" height="750" as="geometry" />
        </mxCell>
        <mxCell id="PzoKav7dEEls6F5gKGj7-153" value="" style="html=1;points=[[0,0,0,0,5],[0,1,0,0,-5],[1,0,0,0,5],[1,1,0,0,-5]];perimeter=orthogonalPerimeter;outlineConnect=0;targetShapes=umlLifeline;portConstraint=eastwest;newEdgeStyle={&quot;curved&quot;:0,&quot;rounded&quot;:0};" vertex="1" parent="PzoKav7dEEls6F5gKGj7-152">
          <mxGeometry x="45" y="110" width="10" height="70" as="geometry" />
        </mxCell>
        <mxCell id="PzoKav7dEEls6F5gKGj7-179" value="" style="html=1;points=[[0,0,0,0,5],[0,1,0,0,-5],[1,0,0,0,5],[1,1,0,0,-5]];perimeter=orthogonalPerimeter;outlineConnect=0;targetShapes=umlLifeline;portConstraint=eastwest;newEdgeStyle={&quot;curved&quot;:0,&quot;rounded&quot;:0};" vertex="1" parent="PzoKav7dEEls6F5gKGj7-152">
          <mxGeometry x="45" y="270" width="10" height="60" as="geometry" />
        </mxCell>
        <mxCell id="PzoKav7dEEls6F5gKGj7-188" style="edgeStyle=orthogonalEdgeStyle;rounded=0;orthogonalLoop=1;jettySize=auto;html=1;curved=0;exitX=1;exitY=0;exitDx=0;exitDy=5;exitPerimeter=0;" edge="1" parent="PzoKav7dEEls6F5gKGj7-152" source="PzoKav7dEEls6F5gKGj7-153" target="PzoKav7dEEls6F5gKGj7-153">
          <mxGeometry relative="1" as="geometry" />
        </mxCell>
        <mxCell id="PzoKav7dEEls6F5gKGj7-239" value="" style="html=1;points=[[0,0,0,0,5],[0,1,0,0,-5],[1,0,0,0,5],[1,1,0,0,-5]];perimeter=orthogonalPerimeter;outlineConnect=0;targetShapes=umlLifeline;portConstraint=eastwest;newEdgeStyle={&quot;curved&quot;:0,&quot;rounded&quot;:0};" vertex="1" parent="PzoKav7dEEls6F5gKGj7-152">
          <mxGeometry x="45" y="420" width="10" height="60" as="geometry" />
        </mxCell>
        <mxCell id="PzoKav7dEEls6F5gKGj7-155" value="" style="shape=umlLifeline;perimeter=lifelinePerimeter;whiteSpace=wrap;html=1;container=1;dropTarget=0;collapsible=0;recursiveResize=0;outlineConnect=0;portConstraint=eastwest;newEdgeStyle={&quot;curved&quot;:0,&quot;rounded&quot;:0};participant=umlActor;" vertex="1" parent="1">
          <mxGeometry x="900" y="-50" width="20" height="750" as="geometry" />
        </mxCell>
        <mxCell id="PzoKav7dEEls6F5gKGj7-178" style="edgeStyle=orthogonalEdgeStyle;rounded=0;orthogonalLoop=1;jettySize=auto;html=1;curved=0;entryX=0;entryY=0;entryDx=0;entryDy=5;entryPerimeter=0;" edge="1" parent="PzoKav7dEEls6F5gKGj7-155" source="PzoKav7dEEls6F5gKGj7-177">
          <mxGeometry relative="1" as="geometry">
            <mxPoint x="185" y="245" as="targetPoint" />
            <Array as="points">
              <mxPoint x="60" y="245" />
              <mxPoint x="60" y="245" />
            </Array>
          </mxGeometry>
        </mxCell>
        <mxCell id="PzoKav7dEEls6F5gKGj7-244" value="" style="html=1;points=[[0,0,0,0,5],[0,1,0,0,-5],[1,0,0,0,5],[1,1,0,0,-5]];perimeter=orthogonalPerimeter;outlineConnect=0;targetShapes=umlLifeline;portConstraint=eastwest;newEdgeStyle={&quot;curved&quot;:0,&quot;rounded&quot;:0};" vertex="1" parent="PzoKav7dEEls6F5gKGj7-155">
          <mxGeometry x="5" y="390" width="10" height="60" as="geometry" />
        </mxCell>
        <mxCell id="PzoKav7dEEls6F5gKGj7-283" value="" style="html=1;points=[[0,0,0,0,5],[0,1,0,0,-5],[1,0,0,0,5],[1,1,0,0,-5]];perimeter=orthogonalPerimeter;outlineConnect=0;targetShapes=umlLifeline;portConstraint=eastwest;newEdgeStyle={&quot;curved&quot;:0,&quot;rounded&quot;:0};" vertex="1" parent="PzoKav7dEEls6F5gKGj7-155">
          <mxGeometry x="5" y="590" width="10" height="60" as="geometry" />
        </mxCell>
        <mxCell id="PzoKav7dEEls6F5gKGj7-157" value="User.py" style="shape=umlLifeline;perimeter=lifelinePerimeter;whiteSpace=wrap;html=1;container=1;dropTarget=0;collapsible=0;recursiveResize=0;outlineConnect=0;portConstraint=eastwest;newEdgeStyle={&quot;edgeStyle&quot;:&quot;elbowEdgeStyle&quot;,&quot;elbow&quot;:&quot;vertical&quot;,&quot;curved&quot;:0,&quot;rounded&quot;:0};" vertex="1" parent="1">
          <mxGeometry x="1170" y="-50" width="100" height="750" as="geometry" />
        </mxCell>
        <mxCell id="PzoKav7dEEls6F5gKGj7-158" value="" style="html=1;points=[[0,0,0,0,5],[0,1,0,0,-5],[1,0,0,0,5],[1,1,0,0,-5]];perimeter=orthogonalPerimeter;outlineConnect=0;targetShapes=umlLifeline;portConstraint=eastwest;newEdgeStyle={&quot;curved&quot;:0,&quot;rounded&quot;:0};" vertex="1" parent="PzoKav7dEEls6F5gKGj7-157">
          <mxGeometry x="45" y="100" width="10" height="50" as="geometry" />
        </mxCell>
        <mxCell id="PzoKav7dEEls6F5gKGj7-183" style="rounded=0;orthogonalLoop=1;jettySize=auto;html=1;exitX=0;exitY=0;exitDx=0;exitDy=5;exitPerimeter=0;endArrow=none;endFill=0;" edge="1" parent="PzoKav7dEEls6F5gKGj7-157" source="PzoKav7dEEls6F5gKGj7-158" target="PzoKav7dEEls6F5gKGj7-158">
          <mxGeometry relative="1" as="geometry" />
        </mxCell>
        <mxCell id="PzoKav7dEEls6F5gKGj7-254" value="" style="html=1;points=[[0,0,0,0,5],[0,1,0,0,-5],[1,0,0,0,5],[1,1,0,0,-5]];perimeter=orthogonalPerimeter;outlineConnect=0;targetShapes=umlLifeline;portConstraint=eastwest;newEdgeStyle={&quot;curved&quot;:0,&quot;rounded&quot;:0};" vertex="1" parent="PzoKav7dEEls6F5gKGj7-157">
          <mxGeometry x="45" y="410" width="10" height="80" as="geometry" />
        </mxCell>
        <mxCell id="PzoKav7dEEls6F5gKGj7-159" value="PaperSearch.html" style="shape=umlLifeline;perimeter=lifelinePerimeter;whiteSpace=wrap;html=1;container=1;dropTarget=0;collapsible=0;recursiveResize=0;outlineConnect=0;portConstraint=eastwest;newEdgeStyle={&quot;edgeStyle&quot;:&quot;elbowEdgeStyle&quot;,&quot;elbow&quot;:&quot;vertical&quot;,&quot;curved&quot;:0,&quot;rounded&quot;:0};" vertex="1" parent="1">
          <mxGeometry x="1052.5" y="840" width="100" height="380" as="geometry" />
        </mxCell>
        <mxCell id="PzoKav7dEEls6F5gKGj7-160" value="" style="html=1;points=[[0,0,0,0,5],[0,1,0,0,-5],[1,0,0,0,5],[1,1,0,0,-5]];perimeter=orthogonalPerimeter;outlineConnect=0;targetShapes=umlLifeline;portConstraint=eastwest;newEdgeStyle={&quot;curved&quot;:0,&quot;rounded&quot;:0};" vertex="1" parent="PzoKav7dEEls6F5gKGj7-159">
          <mxGeometry x="45" y="80" width="10" height="120" as="geometry" />
        </mxCell>
        <mxCell id="PzoKav7dEEls6F5gKGj7-302" value="" style="html=1;points=[[0,0,0,0,5],[0,1,0,0,-5],[1,0,0,0,5],[1,1,0,0,-5]];perimeter=orthogonalPerimeter;outlineConnect=0;targetShapes=umlLifeline;portConstraint=eastwest;newEdgeStyle={&quot;curved&quot;:0,&quot;rounded&quot;:0};" vertex="1" parent="PzoKav7dEEls6F5gKGj7-159">
          <mxGeometry x="45" y="240" width="10" height="120" as="geometry" />
        </mxCell>
        <mxCell id="PzoKav7dEEls6F5gKGj7-161" value="database" style="shape=umlLifeline;perimeter=lifelinePerimeter;whiteSpace=wrap;html=1;container=1;dropTarget=0;collapsible=0;recursiveResize=0;outlineConnect=0;portConstraint=eastwest;newEdgeStyle={&quot;edgeStyle&quot;:&quot;elbowEdgeStyle&quot;,&quot;elbow&quot;:&quot;vertical&quot;,&quot;curved&quot;:0,&quot;rounded&quot;:0};" vertex="1" parent="1">
          <mxGeometry x="1337.5" y="840" width="100" height="380" as="geometry" />
        </mxCell>
        <mxCell id="PzoKav7dEEls6F5gKGj7-162" value="" style="html=1;points=[[0,0,0,0,5],[0,1,0,0,-5],[1,0,0,0,5],[1,1,0,0,-5]];perimeter=orthogonalPerimeter;outlineConnect=0;targetShapes=umlLifeline;portConstraint=eastwest;newEdgeStyle={&quot;curved&quot;:0,&quot;rounded&quot;:0};" vertex="1" parent="PzoKav7dEEls6F5gKGj7-161">
          <mxGeometry x="45" y="120" width="10" height="60" as="geometry" />
        </mxCell>
        <mxCell id="PzoKav7dEEls6F5gKGj7-306" value="" style="html=1;points=[[0,0,0,0,5],[0,1,0,0,-5],[1,0,0,0,5],[1,1,0,0,-5]];perimeter=orthogonalPerimeter;outlineConnect=0;targetShapes=umlLifeline;portConstraint=eastwest;newEdgeStyle={&quot;curved&quot;:0,&quot;rounded&quot;:0};" vertex="1" parent="PzoKav7dEEls6F5gKGj7-161">
          <mxGeometry x="45" y="270" width="10" height="60" as="geometry" />
        </mxCell>
        <mxCell id="PzoKav7dEEls6F5gKGj7-164" value="" style="shape=umlLifeline;perimeter=lifelinePerimeter;whiteSpace=wrap;html=1;container=1;dropTarget=0;collapsible=0;recursiveResize=0;outlineConnect=0;portConstraint=eastwest;newEdgeStyle={&quot;curved&quot;:0,&quot;rounded&quot;:0};participant=umlActor;" vertex="1" parent="1">
          <mxGeometry x="912.5" y="840" width="20" height="380" as="geometry" />
        </mxCell>
        <mxCell id="PzoKav7dEEls6F5gKGj7-165" value="" style="html=1;points=[[0,0,0,0,5],[0,1,0,0,-5],[1,0,0,0,5],[1,1,0,0,-5]];perimeter=orthogonalPerimeter;outlineConnect=0;targetShapes=umlLifeline;portConstraint=eastwest;newEdgeStyle={&quot;curved&quot;:0,&quot;rounded&quot;:0};" vertex="1" parent="PzoKav7dEEls6F5gKGj7-164">
          <mxGeometry x="2.5" y="80" width="10" height="80" as="geometry" />
        </mxCell>
        <mxCell id="PzoKav7dEEls6F5gKGj7-299" value="" style="html=1;points=[[0,0,0,0,5],[0,1,0,0,-5],[1,0,0,0,5],[1,1,0,0,-5]];perimeter=orthogonalPerimeter;outlineConnect=0;targetShapes=umlLifeline;portConstraint=eastwest;newEdgeStyle={&quot;curved&quot;:0,&quot;rounded&quot;:0};" vertex="1" parent="PzoKav7dEEls6F5gKGj7-164">
          <mxGeometry x="5" y="230" width="10" height="80" as="geometry" />
        </mxCell>
        <mxCell id="PzoKav7dEEls6F5gKGj7-166" value="PaperSearch.py" style="shape=umlLifeline;perimeter=lifelinePerimeter;whiteSpace=wrap;html=1;container=1;dropTarget=0;collapsible=0;recursiveResize=0;outlineConnect=0;portConstraint=eastwest;newEdgeStyle={&quot;edgeStyle&quot;:&quot;elbowEdgeStyle&quot;,&quot;elbow&quot;:&quot;vertical&quot;,&quot;curved&quot;:0,&quot;rounded&quot;:0};" vertex="1" parent="1">
          <mxGeometry x="1182.5" y="840" width="100" height="380" as="geometry" />
        </mxCell>
        <mxCell id="PzoKav7dEEls6F5gKGj7-167" value="" style="html=1;points=[[0,0,0,0,5],[0,1,0,0,-5],[1,0,0,0,5],[1,1,0,0,-5]];perimeter=orthogonalPerimeter;outlineConnect=0;targetShapes=umlLifeline;portConstraint=eastwest;newEdgeStyle={&quot;curved&quot;:0,&quot;rounded&quot;:0};" vertex="1" parent="PzoKav7dEEls6F5gKGj7-166">
          <mxGeometry x="45" y="100" width="10" height="90" as="geometry" />
        </mxCell>
        <mxCell id="PzoKav7dEEls6F5gKGj7-305" value="" style="html=1;points=[[0,0,0,0,5],[0,1,0,0,-5],[1,0,0,0,5],[1,1,0,0,-5]];perimeter=orthogonalPerimeter;outlineConnect=0;targetShapes=umlLifeline;portConstraint=eastwest;newEdgeStyle={&quot;curved&quot;:0,&quot;rounded&quot;:0};" vertex="1" parent="PzoKav7dEEls6F5gKGj7-166">
          <mxGeometry x="45" y="255" width="10" height="90" as="geometry" />
        </mxCell>
        <mxCell id="PzoKav7dEEls6F5gKGj7-168" style="edgeStyle=orthogonalEdgeStyle;rounded=0;orthogonalLoop=1;jettySize=auto;html=1;curved=0;entryX=0;entryY=0;entryDx=0;entryDy=5;entryPerimeter=0;" edge="1" parent="1" source="PzoKav7dEEls6F5gKGj7-156" target="PzoKav7dEEls6F5gKGj7-151">
          <mxGeometry relative="1" as="geometry">
            <Array as="points">
              <mxPoint x="960" y="35" />
              <mxPoint x="960" y="35" />
            </Array>
          </mxGeometry>
        </mxCell>
        <mxCell id="PzoKav7dEEls6F5gKGj7-171" value="Opt" style="shape=umlFrame;whiteSpace=wrap;html=1;pointerEvents=0;recursiveResize=0;container=1;collapsible=0;width=50;" vertex="1" parent="1">
          <mxGeometry x="840" width="680" height="715" as="geometry" />
        </mxCell>
        <mxCell id="PzoKav7dEEls6F5gKGj7-173" value="Opt" style="shape=umlFrame;whiteSpace=wrap;html=1;pointerEvents=0;recursiveResize=0;container=1;collapsible=0;width=50;" vertex="1" parent="PzoKav7dEEls6F5gKGj7-171">
          <mxGeometry y="160" width="680" height="555" as="geometry" />
        </mxCell>
        <mxCell id="PzoKav7dEEls6F5gKGj7-198" style="edgeStyle=orthogonalEdgeStyle;rounded=0;orthogonalLoop=1;jettySize=auto;html=1;curved=0;exitX=0;exitY=1;exitDx=0;exitDy=-5;exitPerimeter=0;" edge="1" parent="PzoKav7dEEls6F5gKGj7-173" source="PzoKav7dEEls6F5gKGj7-175" target="PzoKav7dEEls6F5gKGj7-176">
          <mxGeometry relative="1" as="geometry">
            <Array as="points">
              <mxPoint x="290" y="125" />
              <mxPoint x="290" y="125" />
            </Array>
          </mxGeometry>
        </mxCell>
        <mxCell id="PzoKav7dEEls6F5gKGj7-175" value="" style="html=1;points=[[0,0,0,0,5],[0,1,0,0,-5],[1,0,0,0,5],[1,1,0,0,-5]];perimeter=orthogonalPerimeter;outlineConnect=0;targetShapes=umlLifeline;portConstraint=eastwest;newEdgeStyle={&quot;curved&quot;:0,&quot;rounded&quot;:0};" vertex="1" parent="PzoKav7dEEls6F5gKGj7-173">
          <mxGeometry x="375" y="50" width="10" height="80" as="geometry" />
        </mxCell>
        <mxCell id="PzoKav7dEEls6F5gKGj7-176" value="" style="html=1;points=[[0,0,0,0,5],[0,1,0,0,-5],[1,0,0,0,5],[1,1,0,0,-5]];perimeter=orthogonalPerimeter;outlineConnect=0;targetShapes=umlLifeline;portConstraint=eastwest;newEdgeStyle={&quot;curved&quot;:0,&quot;rounded&quot;:0};" vertex="1" parent="PzoKav7dEEls6F5gKGj7-173">
          <mxGeometry x="245" y="30" width="10" height="110" as="geometry" />
        </mxCell>
        <mxCell id="PzoKav7dEEls6F5gKGj7-177" value="" style="html=1;points=[[0,0,0,0,5],[0,1,0,0,-5],[1,0,0,0,5],[1,1,0,0,-5]];perimeter=orthogonalPerimeter;outlineConnect=0;targetShapes=umlLifeline;portConstraint=eastwest;newEdgeStyle={&quot;curved&quot;:0,&quot;rounded&quot;:0};" vertex="1" parent="PzoKav7dEEls6F5gKGj7-173">
          <mxGeometry x="65" y="30" width="10" height="60" as="geometry" />
        </mxCell>
        <mxCell id="PzoKav7dEEls6F5gKGj7-182" value="点击收藏按钮" style="text;html=1;align=center;verticalAlign=middle;resizable=0;points=[];autosize=1;strokeColor=none;fillColor=none;" vertex="1" parent="PzoKav7dEEls6F5gKGj7-173">
          <mxGeometry x="105" y="10" width="100" height="30" as="geometry" />
        </mxCell>
        <mxCell id="PzoKav7dEEls6F5gKGj7-192" value="用户ID" style="text;html=1;align=center;verticalAlign=middle;resizable=0;points=[];autosize=1;strokeColor=none;fillColor=none;" vertex="1" parent="PzoKav7dEEls6F5gKGj7-173">
          <mxGeometry x="275" y="30" width="60" height="30" as="geometry" />
        </mxCell>
        <mxCell id="PzoKav7dEEls6F5gKGj7-193" value="查询用户" style="text;html=1;align=center;verticalAlign=middle;resizable=0;points=[];autosize=1;strokeColor=none;fillColor=none;" vertex="1" parent="PzoKav7dEEls6F5gKGj7-173">
          <mxGeometry x="420" y="40" width="70" height="30" as="geometry" />
        </mxCell>
        <mxCell id="PzoKav7dEEls6F5gKGj7-194" style="edgeStyle=orthogonalEdgeStyle;rounded=0;orthogonalLoop=1;jettySize=auto;html=1;curved=0;exitX=1;exitY=0;exitDx=0;exitDy=5;exitPerimeter=0;entryX=0;entryY=0;entryDx=0;entryDy=5;entryPerimeter=0;" edge="1" parent="PzoKav7dEEls6F5gKGj7-173">
          <mxGeometry relative="1" as="geometry">
            <mxPoint x="255" y="35" as="sourcePoint" />
            <mxPoint x="375" y="55" as="targetPoint" />
            <Array as="points">
              <mxPoint x="255" y="55" />
            </Array>
          </mxGeometry>
        </mxCell>
        <mxCell id="PzoKav7dEEls6F5gKGj7-195" style="edgeStyle=orthogonalEdgeStyle;rounded=0;orthogonalLoop=1;jettySize=auto;html=1;curved=0;exitX=1;exitY=0;exitDx=0;exitDy=5;exitPerimeter=0;entryX=0;entryY=0;entryDx=0;entryDy=5;entryPerimeter=0;" edge="1" parent="PzoKav7dEEls6F5gKGj7-173">
          <mxGeometry relative="1" as="geometry">
            <mxPoint x="385" y="55" as="sourcePoint" />
            <mxPoint x="530" y="65" as="targetPoint" />
            <Array as="points">
              <mxPoint x="385" y="65" />
            </Array>
          </mxGeometry>
        </mxCell>
        <mxCell id="PzoKav7dEEls6F5gKGj7-197" value="返回用户收藏信息" style="text;html=1;align=center;verticalAlign=middle;resizable=0;points=[];autosize=1;strokeColor=none;fillColor=none;" vertex="1" parent="PzoKav7dEEls6F5gKGj7-173">
          <mxGeometry x="395" y="90" width="120" height="30" as="geometry" />
        </mxCell>
        <mxCell id="PzoKav7dEEls6F5gKGj7-199" value="用户收藏列表" style="text;html=1;align=center;verticalAlign=middle;resizable=0;points=[];autosize=1;strokeColor=none;fillColor=none;" vertex="1" parent="PzoKav7dEEls6F5gKGj7-173">
          <mxGeometry x="260" y="100" width="100" height="30" as="geometry" />
        </mxCell>
        <mxCell id="PzoKav7dEEls6F5gKGj7-200" value="Opt" style="shape=umlFrame;whiteSpace=wrap;html=1;pointerEvents=0;recursiveResize=0;container=1;collapsible=0;width=50;" vertex="1" parent="PzoKav7dEEls6F5gKGj7-173">
          <mxGeometry x="10" y="145" width="670" height="410" as="geometry" />
        </mxCell>
        <mxCell id="PzoKav7dEEls6F5gKGj7-202" value="Opt" style="shape=umlFrame;whiteSpace=wrap;html=1;pointerEvents=0;recursiveResize=0;container=1;collapsible=0;width=50;" vertex="1" parent="PzoKav7dEEls6F5gKGj7-200">
          <mxGeometry y="190" width="670" height="220" as="geometry" />
        </mxCell>
        <mxCell id="PzoKav7dEEls6F5gKGj7-273" style="edgeStyle=orthogonalEdgeStyle;rounded=0;orthogonalLoop=1;jettySize=auto;html=1;curved=0;entryX=0;entryY=0;entryDx=0;entryDy=5;entryPerimeter=0;" edge="1" parent="PzoKav7dEEls6F5gKGj7-202">
          <mxGeometry relative="1" as="geometry">
            <mxPoint x="232.5" y="60" as="targetPoint" />
            <Array as="points">
              <mxPoint x="107.5" y="60" />
              <mxPoint x="107.5" y="60" />
            </Array>
            <mxPoint x="67.5" y="60" as="sourcePoint" />
          </mxGeometry>
        </mxCell>
        <mxCell id="PzoKav7dEEls6F5gKGj7-274" value="点击分享对应论文" style="text;html=1;align=center;verticalAlign=middle;resizable=0;points=[];autosize=1;strokeColor=none;fillColor=none;" vertex="1" parent="PzoKav7dEEls6F5gKGj7-202">
          <mxGeometry x="82.5" y="35" width="120" height="30" as="geometry" />
        </mxCell>
        <mxCell id="PzoKav7dEEls6F5gKGj7-275" value="文献ID" style="text;html=1;align=center;verticalAlign=middle;resizable=0;points=[];autosize=1;strokeColor=none;fillColor=none;" vertex="1" parent="PzoKav7dEEls6F5gKGj7-202">
          <mxGeometry x="262.5" y="55" width="60" height="30" as="geometry" />
        </mxCell>
        <mxCell id="PzoKav7dEEls6F5gKGj7-276" value="查询文献" style="text;html=1;align=center;verticalAlign=middle;resizable=0;points=[];autosize=1;strokeColor=none;fillColor=none;" vertex="1" parent="PzoKav7dEEls6F5gKGj7-202">
          <mxGeometry x="407.5" y="65" width="70" height="30" as="geometry" />
        </mxCell>
        <mxCell id="PzoKav7dEEls6F5gKGj7-277" value="返回文献url" style="text;html=1;align=center;verticalAlign=middle;resizable=0;points=[];autosize=1;strokeColor=none;fillColor=none;" vertex="1" parent="PzoKav7dEEls6F5gKGj7-202">
          <mxGeometry x="402.5" y="115" width="80" height="30" as="geometry" />
        </mxCell>
        <mxCell id="PzoKav7dEEls6F5gKGj7-278" value="显示文献url" style="text;html=1;align=center;verticalAlign=middle;resizable=0;points=[];autosize=1;strokeColor=none;fillColor=none;" vertex="1" parent="PzoKav7dEEls6F5gKGj7-202">
          <mxGeometry x="257.5" y="125" width="80" height="30" as="geometry" />
        </mxCell>
        <mxCell id="PzoKav7dEEls6F5gKGj7-279" style="edgeStyle=orthogonalEdgeStyle;rounded=0;orthogonalLoop=1;jettySize=auto;html=1;curved=0;exitX=0;exitY=1;exitDx=0;exitDy=-5;exitPerimeter=0;" edge="1" parent="PzoKav7dEEls6F5gKGj7-202">
          <mxGeometry relative="1" as="geometry">
            <Array as="points">
              <mxPoint x="282.5" y="150" />
              <mxPoint x="282.5" y="150" />
            </Array>
            <mxPoint x="367.5" y="150" as="sourcePoint" />
            <mxPoint x="247.5" y="150" as="targetPoint" />
          </mxGeometry>
        </mxCell>
        <mxCell id="PzoKav7dEEls6F5gKGj7-280" style="edgeStyle=orthogonalEdgeStyle;rounded=0;orthogonalLoop=1;jettySize=auto;html=1;curved=0;exitX=0;exitY=1;exitDx=0;exitDy=-5;exitPerimeter=0;" edge="1" parent="PzoKav7dEEls6F5gKGj7-202">
          <mxGeometry relative="1" as="geometry">
            <mxPoint x="522.5" y="140" as="sourcePoint" />
            <mxPoint x="377.5" y="140" as="targetPoint" />
            <Array as="points">
              <mxPoint x="412.5" y="140" />
              <mxPoint x="412.5" y="140" />
            </Array>
          </mxGeometry>
        </mxCell>
        <mxCell id="PzoKav7dEEls6F5gKGj7-281" style="edgeStyle=orthogonalEdgeStyle;rounded=0;orthogonalLoop=1;jettySize=auto;html=1;curved=0;exitX=1;exitY=0;exitDx=0;exitDy=5;exitPerimeter=0;entryX=0;entryY=0;entryDx=0;entryDy=5;entryPerimeter=0;" edge="1" parent="PzoKav7dEEls6F5gKGj7-202">
          <mxGeometry relative="1" as="geometry">
            <mxPoint x="377.5" y="80" as="sourcePoint" />
            <mxPoint x="522.5" y="90" as="targetPoint" />
            <Array as="points">
              <mxPoint x="377.5" y="90" />
            </Array>
          </mxGeometry>
        </mxCell>
        <mxCell id="PzoKav7dEEls6F5gKGj7-282" style="edgeStyle=orthogonalEdgeStyle;rounded=0;orthogonalLoop=1;jettySize=auto;html=1;curved=0;entryX=0;entryY=0;entryDx=0;entryDy=5;entryPerimeter=0;" edge="1" parent="PzoKav7dEEls6F5gKGj7-202">
          <mxGeometry relative="1" as="geometry">
            <mxPoint x="248" y="75" as="sourcePoint" />
            <mxPoint x="367.5" y="80" as="targetPoint" />
            <Array as="points">
              <mxPoint x="248" y="80" />
            </Array>
          </mxGeometry>
        </mxCell>
        <mxCell id="PzoKav7dEEls6F5gKGj7-285" value="" style="html=1;points=[[0,0,0,0,5],[0,1,0,0,-5],[1,0,0,0,5],[1,1,0,0,-5]];perimeter=orthogonalPerimeter;outlineConnect=0;targetShapes=umlLifeline;portConstraint=eastwest;newEdgeStyle={&quot;curved&quot;:0,&quot;rounded&quot;:0};" vertex="1" parent="PzoKav7dEEls6F5gKGj7-202">
          <mxGeometry x="370" y="75" width="10" height="80" as="geometry" />
        </mxCell>
        <mxCell id="PzoKav7dEEls6F5gKGj7-286" value="" style="html=1;points=[[0,0,0,0,5],[0,1,0,0,-5],[1,0,0,0,5],[1,1,0,0,-5]];perimeter=orthogonalPerimeter;outlineConnect=0;targetShapes=umlLifeline;portConstraint=eastwest;newEdgeStyle={&quot;curved&quot;:0,&quot;rounded&quot;:0};" vertex="1" parent="PzoKav7dEEls6F5gKGj7-202">
          <mxGeometry x="520" y="85" width="10" height="60" as="geometry" />
        </mxCell>
        <mxCell id="PzoKav7dEEls6F5gKGj7-240" style="edgeStyle=orthogonalEdgeStyle;rounded=0;orthogonalLoop=1;jettySize=auto;html=1;curved=0;entryX=0;entryY=0;entryDx=0;entryDy=5;entryPerimeter=0;" edge="1" parent="PzoKav7dEEls6F5gKGj7-200" source="PzoKav7dEEls6F5gKGj7-244">
          <mxGeometry relative="1" as="geometry">
            <mxPoint x="230" y="40" as="targetPoint" />
            <Array as="points">
              <mxPoint x="105" y="40" />
              <mxPoint x="105" y="40" />
            </Array>
          </mxGeometry>
        </mxCell>
        <mxCell id="PzoKav7dEEls6F5gKGj7-245" value="点击查看对应论文" style="text;html=1;align=center;verticalAlign=middle;resizable=0;points=[];autosize=1;strokeColor=none;fillColor=none;" vertex="1" parent="PzoKav7dEEls6F5gKGj7-200">
          <mxGeometry x="80" y="15" width="120" height="30" as="geometry" />
        </mxCell>
        <mxCell id="PzoKav7dEEls6F5gKGj7-246" value="文献ID" style="text;html=1;align=center;verticalAlign=middle;resizable=0;points=[];autosize=1;strokeColor=none;fillColor=none;" vertex="1" parent="PzoKav7dEEls6F5gKGj7-200">
          <mxGeometry x="260" y="35" width="60" height="30" as="geometry" />
        </mxCell>
        <mxCell id="PzoKav7dEEls6F5gKGj7-247" value="查询文献" style="text;html=1;align=center;verticalAlign=middle;resizable=0;points=[];autosize=1;strokeColor=none;fillColor=none;" vertex="1" parent="PzoKav7dEEls6F5gKGj7-200">
          <mxGeometry x="405" y="45" width="70" height="30" as="geometry" />
        </mxCell>
        <mxCell id="PzoKav7dEEls6F5gKGj7-250" value="返回文献信息" style="text;html=1;align=center;verticalAlign=middle;resizable=0;points=[];autosize=1;strokeColor=none;fillColor=none;" vertex="1" parent="PzoKav7dEEls6F5gKGj7-200">
          <mxGeometry x="390" y="95" width="100" height="30" as="geometry" />
        </mxCell>
        <mxCell id="PzoKav7dEEls6F5gKGj7-251" value="显示文献内容" style="text;html=1;align=center;verticalAlign=middle;resizable=0;points=[];autosize=1;strokeColor=none;fillColor=none;" vertex="1" parent="PzoKav7dEEls6F5gKGj7-200">
          <mxGeometry x="245" y="105" width="100" height="30" as="geometry" />
        </mxCell>
        <mxCell id="PzoKav7dEEls6F5gKGj7-156" value="" style="html=1;points=[[0,0,0,0,5],[0,1,0,0,-5],[1,0,0,0,5],[1,1,0,0,-5]];perimeter=orthogonalPerimeter;outlineConnect=0;targetShapes=umlLifeline;portConstraint=eastwest;newEdgeStyle={&quot;curved&quot;:0,&quot;rounded&quot;:0};" vertex="1" parent="PzoKav7dEEls6F5gKGj7-171">
          <mxGeometry x="65" y="30" width="10" height="60" as="geometry" />
        </mxCell>
        <mxCell id="PzoKav7dEEls6F5gKGj7-181" value="点击完成任务按钮" style="text;html=1;align=center;verticalAlign=middle;resizable=0;points=[];autosize=1;strokeColor=none;fillColor=none;" vertex="1" parent="PzoKav7dEEls6F5gKGj7-171">
          <mxGeometry x="90" y="10" width="120" height="30" as="geometry" />
        </mxCell>
        <mxCell id="PzoKav7dEEls6F5gKGj7-185" value="用户ID" style="text;html=1;align=center;verticalAlign=middle;resizable=0;points=[];autosize=1;strokeColor=none;fillColor=none;" vertex="1" parent="PzoKav7dEEls6F5gKGj7-171">
          <mxGeometry x="275" y="30" width="60" height="30" as="geometry" />
        </mxCell>
        <mxCell id="PzoKav7dEEls6F5gKGj7-187" value="查询用户" style="text;html=1;align=center;verticalAlign=middle;resizable=0;points=[];autosize=1;strokeColor=none;fillColor=none;" vertex="1" parent="PzoKav7dEEls6F5gKGj7-171">
          <mxGeometry x="420" y="40" width="70" height="30" as="geometry" />
        </mxCell>
        <mxCell id="PzoKav7dEEls6F5gKGj7-189" value="添加对应用户积分" style="text;html=1;align=center;verticalAlign=middle;resizable=0;points=[];autosize=1;strokeColor=none;fillColor=none;" vertex="1" parent="PzoKav7dEEls6F5gKGj7-171">
          <mxGeometry x="550" y="70" width="120" height="30" as="geometry" />
        </mxCell>
        <mxCell id="PzoKav7dEEls6F5gKGj7-191" value="显示最后积分" style="text;html=1;align=center;verticalAlign=middle;resizable=0;points=[];autosize=1;strokeColor=none;fillColor=none;" vertex="1" parent="PzoKav7dEEls6F5gKGj7-171">
          <mxGeometry x="345" y="100" width="100" height="30" as="geometry" />
        </mxCell>
        <mxCell id="PzoKav7dEEls6F5gKGj7-184" style="edgeStyle=orthogonalEdgeStyle;rounded=0;orthogonalLoop=1;jettySize=auto;html=1;curved=0;exitX=1;exitY=0;exitDx=0;exitDy=5;exitPerimeter=0;entryX=0;entryY=0;entryDx=0;entryDy=5;entryPerimeter=0;" edge="1" parent="1" source="PzoKav7dEEls6F5gKGj7-151" target="PzoKav7dEEls6F5gKGj7-158">
          <mxGeometry relative="1" as="geometry">
            <Array as="points">
              <mxPoint x="1095" y="55" />
            </Array>
          </mxGeometry>
        </mxCell>
        <mxCell id="PzoKav7dEEls6F5gKGj7-186" style="edgeStyle=orthogonalEdgeStyle;rounded=0;orthogonalLoop=1;jettySize=auto;html=1;curved=0;exitX=1;exitY=0;exitDx=0;exitDy=5;exitPerimeter=0;entryX=0;entryY=0;entryDx=0;entryDy=5;entryPerimeter=0;" edge="1" parent="1" source="PzoKav7dEEls6F5gKGj7-158" target="PzoKav7dEEls6F5gKGj7-153">
          <mxGeometry relative="1" as="geometry">
            <Array as="points">
              <mxPoint x="1225" y="65" />
            </Array>
          </mxGeometry>
        </mxCell>
        <mxCell id="PzoKav7dEEls6F5gKGj7-190" style="edgeStyle=orthogonalEdgeStyle;rounded=0;orthogonalLoop=1;jettySize=auto;html=1;curved=0;exitX=0;exitY=1;exitDx=0;exitDy=-5;exitPerimeter=0;" edge="1" parent="1" source="PzoKav7dEEls6F5gKGj7-153" target="PzoKav7dEEls6F5gKGj7-151">
          <mxGeometry relative="1" as="geometry">
            <Array as="points">
              <mxPoint x="1160" y="125" />
              <mxPoint x="1160" y="125" />
            </Array>
          </mxGeometry>
        </mxCell>
        <mxCell id="PzoKav7dEEls6F5gKGj7-196" style="edgeStyle=orthogonalEdgeStyle;rounded=0;orthogonalLoop=1;jettySize=auto;html=1;curved=0;exitX=0;exitY=1;exitDx=0;exitDy=-5;exitPerimeter=0;" edge="1" parent="1" source="PzoKav7dEEls6F5gKGj7-179" target="PzoKav7dEEls6F5gKGj7-175">
          <mxGeometry relative="1" as="geometry">
            <Array as="points">
              <mxPoint x="1260" y="275" />
              <mxPoint x="1260" y="275" />
            </Array>
          </mxGeometry>
        </mxCell>
        <mxCell id="PzoKav7dEEls6F5gKGj7-218" style="edgeStyle=orthogonalEdgeStyle;rounded=0;orthogonalLoop=1;jettySize=auto;html=1;curved=0;" edge="1" parent="1">
          <mxGeometry relative="1" as="geometry">
            <mxPoint x="402.5" y="242" as="targetPoint" />
            <mxPoint x="237.5" y="242" as="sourcePoint" />
          </mxGeometry>
        </mxCell>
        <mxCell id="PzoKav7dEEls6F5gKGj7-219" value="输入个人信息" style="text;html=1;align=center;verticalAlign=middle;resizable=0;points=[];autosize=1;strokeColor=none;fillColor=none;" vertex="1" parent="1">
          <mxGeometry x="262.5" y="210" width="100" height="30" as="geometry" />
        </mxCell>
        <mxCell id="PzoKav7dEEls6F5gKGj7-220" value="" style="html=1;align=left;spacingLeft=2;endArrow=block;rounded=0;edgeStyle=orthogonalEdgeStyle;rounded=0;" edge="1" parent="1">
          <mxGeometry x="-0.0034" relative="1" as="geometry">
            <mxPoint x="545.25" y="268" as="sourcePoint" />
            <Array as="points">
              <mxPoint x="544.75" y="268" />
            </Array>
            <mxPoint x="694.75" y="268" as="targetPoint" />
            <mxPoint as="offset" />
          </mxGeometry>
        </mxCell>
        <mxCell id="PzoKav7dEEls6F5gKGj7-221" value="发送个人信息" style="text;html=1;align=center;verticalAlign=middle;resizable=0;points=[];autosize=1;strokeColor=none;fillColor=none;" vertex="1" parent="1">
          <mxGeometry x="577.5" y="248" width="100" height="30" as="geometry" />
        </mxCell>
        <mxCell id="PzoKav7dEEls6F5gKGj7-222" style="edgeStyle=orthogonalEdgeStyle;rounded=0;orthogonalLoop=1;jettySize=auto;html=1;curved=0;" edge="1" parent="1" source="PzoKav7dEEls6F5gKGj7-228">
          <mxGeometry relative="1" as="geometry">
            <Array as="points">
              <mxPoint x="690" y="320" />
              <mxPoint x="690" y="320" />
            </Array>
            <mxPoint x="545" y="320" as="targetPoint" />
            <mxPoint x="690" y="310" as="sourcePoint" />
          </mxGeometry>
        </mxCell>
        <mxCell id="PzoKav7dEEls6F5gKGj7-223" value="返回创建信息" style="text;html=1;align=center;verticalAlign=middle;resizable=0;points=[];autosize=1;strokeColor=none;fillColor=none;" vertex="1" parent="1">
          <mxGeometry x="567.5" y="300" width="100" height="30" as="geometry" />
        </mxCell>
        <mxCell id="PzoKav7dEEls6F5gKGj7-224" value="" style="endArrow=classic;html=1;rounded=0;" edge="1" parent="1">
          <mxGeometry width="50" height="50" relative="1" as="geometry">
            <mxPoint x="412.5" y="260" as="sourcePoint" />
            <mxPoint x="537.5" y="260" as="targetPoint" />
            <Array as="points">
              <mxPoint x="482.5" y="260" />
            </Array>
          </mxGeometry>
        </mxCell>
        <mxCell id="PzoKav7dEEls6F5gKGj7-225" value="判断个人信息" style="text;html=1;align=center;verticalAlign=middle;resizable=0;points=[];autosize=1;strokeColor=none;fillColor=none;" vertex="1" parent="1">
          <mxGeometry x="422.5" y="238" width="100" height="30" as="geometry" />
        </mxCell>
        <mxCell id="PzoKav7dEEls6F5gKGj7-226" style="edgeStyle=orthogonalEdgeStyle;rounded=0;orthogonalLoop=1;jettySize=auto;html=1;curved=0;exitX=0;exitY=1;exitDx=0;exitDy=-5;exitPerimeter=0;" edge="1" parent="1">
          <mxGeometry relative="1" as="geometry">
            <mxPoint x="537.5" y="335" as="sourcePoint" />
            <mxPoint x="412.5" y="340" as="targetPoint" />
            <Array as="points">
              <mxPoint x="537.5" y="340" />
            </Array>
          </mxGeometry>
        </mxCell>
        <mxCell id="PzoKav7dEEls6F5gKGj7-227" value="显示个人信息" style="text;html=1;align=center;verticalAlign=middle;resizable=0;points=[];autosize=1;strokeColor=none;fillColor=none;" vertex="1" parent="1">
          <mxGeometry x="422.5" y="318" width="100" height="30" as="geometry" />
        </mxCell>
        <mxCell id="PzoKav7dEEls6F5gKGj7-228" value="" style="html=1;points=[[0,0,0,0,5],[0,1,0,0,-5],[1,0,0,0,5],[1,1,0,0,-5]];perimeter=orthogonalPerimeter;outlineConnect=0;targetShapes=umlLifeline;portConstraint=eastwest;newEdgeStyle={&quot;curved&quot;:0,&quot;rounded&quot;:0};" vertex="1" parent="1">
          <mxGeometry x="697.5" y="280" width="10" height="40" as="geometry" />
        </mxCell>
        <mxCell id="PzoKav7dEEls6F5gKGj7-229" value="创建新用户" style="html=1;align=left;spacingLeft=2;endArrow=block;rounded=0;edgeStyle=orthogonalEdgeStyle;curved=0;rounded=0;" edge="1" parent="1">
          <mxGeometry relative="1" as="geometry">
            <mxPoint x="707.5" y="285" as="sourcePoint" />
            <Array as="points">
              <mxPoint x="737.5" y="315" />
            </Array>
            <mxPoint x="712.5" y="315" as="targetPoint" />
            <mxPoint as="offset" />
          </mxGeometry>
        </mxCell>
        <mxCell id="PzoKav7dEEls6F5gKGj7-235" value="Opt" style="shape=umlFrame;whiteSpace=wrap;html=1;pointerEvents=0;recursiveResize=0;container=1;collapsible=0;width=50;" vertex="1" parent="1">
          <mxGeometry x="163" y="20" width="637" height="190" as="geometry" />
        </mxCell>
        <mxCell id="PzoKav7dEEls6F5gKGj7-237" value="Opt" style="shape=umlFrame;whiteSpace=wrap;html=1;pointerEvents=0;recursiveResize=0;container=1;collapsible=0;width=50;" vertex="1" parent="1">
          <mxGeometry x="163" y="210" width="637" height="190" as="geometry" />
        </mxCell>
        <mxCell id="PzoKav7dEEls6F5gKGj7-241" style="edgeStyle=orthogonalEdgeStyle;rounded=0;orthogonalLoop=1;jettySize=auto;html=1;curved=0;exitX=0;exitY=1;exitDx=0;exitDy=-5;exitPerimeter=0;" edge="1" parent="1" source="PzoKav7dEEls6F5gKGj7-254" target="PzoKav7dEEls6F5gKGj7-243">
          <mxGeometry relative="1" as="geometry">
            <Array as="points">
              <mxPoint x="1130" y="435" />
              <mxPoint x="1130" y="435" />
            </Array>
            <mxPoint x="1210" y="435" as="sourcePoint" />
          </mxGeometry>
        </mxCell>
        <mxCell id="PzoKav7dEEls6F5gKGj7-256" style="edgeStyle=orthogonalEdgeStyle;rounded=0;orthogonalLoop=1;jettySize=auto;html=1;curved=0;exitX=0;exitY=1;exitDx=0;exitDy=-5;exitPerimeter=0;" edge="1" parent="1" source="PzoKav7dEEls6F5gKGj7-239" target="PzoKav7dEEls6F5gKGj7-254">
          <mxGeometry relative="1" as="geometry">
            <Array as="points">
              <mxPoint x="1260" y="425" />
              <mxPoint x="1260" y="425" />
            </Array>
          </mxGeometry>
        </mxCell>
        <mxCell id="PzoKav7dEEls6F5gKGj7-257" style="edgeStyle=orthogonalEdgeStyle;rounded=0;orthogonalLoop=1;jettySize=auto;html=1;curved=0;exitX=1;exitY=0;exitDx=0;exitDy=5;exitPerimeter=0;entryX=0;entryY=0;entryDx=0;entryDy=5;entryPerimeter=0;" edge="1" parent="1" source="PzoKav7dEEls6F5gKGj7-254" target="PzoKav7dEEls6F5gKGj7-239">
          <mxGeometry relative="1" as="geometry">
            <Array as="points">
              <mxPoint x="1225" y="375" />
            </Array>
          </mxGeometry>
        </mxCell>
        <mxCell id="PzoKav7dEEls6F5gKGj7-258" style="edgeStyle=orthogonalEdgeStyle;rounded=0;orthogonalLoop=1;jettySize=auto;html=1;curved=0;exitX=1;exitY=0;exitDx=0;exitDy=5;exitPerimeter=0;entryX=0;entryY=0;entryDx=0;entryDy=5;entryPerimeter=0;" edge="1" parent="1" source="PzoKav7dEEls6F5gKGj7-243" target="PzoKav7dEEls6F5gKGj7-254">
          <mxGeometry relative="1" as="geometry">
            <Array as="points">
              <mxPoint x="1095" y="365" />
            </Array>
          </mxGeometry>
        </mxCell>
        <mxCell id="PzoKav7dEEls6F5gKGj7-287" style="edgeStyle=orthogonalEdgeStyle;rounded=0;orthogonalLoop=1;jettySize=auto;html=1;curved=0;exitX=1;exitY=0;exitDx=0;exitDy=5;exitPerimeter=0;entryX=0;entryY=0;entryDx=0;entryDy=5;entryPerimeter=0;" edge="1" parent="1" source="PzoKav7dEEls6F5gKGj7-165" target="PzoKav7dEEls6F5gKGj7-160">
          <mxGeometry relative="1" as="geometry">
            <Array as="points">
              <mxPoint x="928" y="925" />
            </Array>
          </mxGeometry>
        </mxCell>
        <mxCell id="PzoKav7dEEls6F5gKGj7-288" value="输入关键词" style="text;html=1;align=center;verticalAlign=middle;resizable=0;points=[];autosize=1;strokeColor=none;fillColor=none;" vertex="1" parent="1">
          <mxGeometry x="950" y="898" width="80" height="30" as="geometry" />
        </mxCell>
        <mxCell id="PzoKav7dEEls6F5gKGj7-289" style="edgeStyle=orthogonalEdgeStyle;rounded=0;orthogonalLoop=1;jettySize=auto;html=1;curved=0;exitX=1;exitY=0;exitDx=0;exitDy=5;exitPerimeter=0;entryX=0;entryY=0;entryDx=0;entryDy=5;entryPerimeter=0;" edge="1" parent="1" source="PzoKav7dEEls6F5gKGj7-160" target="PzoKav7dEEls6F5gKGj7-167">
          <mxGeometry relative="1" as="geometry">
            <Array as="points">
              <mxPoint x="1108" y="945" />
            </Array>
          </mxGeometry>
        </mxCell>
        <mxCell id="PzoKav7dEEls6F5gKGj7-290" style="edgeStyle=orthogonalEdgeStyle;rounded=0;orthogonalLoop=1;jettySize=auto;html=1;curved=0;exitX=1;exitY=0;exitDx=0;exitDy=5;exitPerimeter=0;entryX=0;entryY=0;entryDx=0;entryDy=5;entryPerimeter=0;" edge="1" parent="1" source="PzoKav7dEEls6F5gKGj7-167" target="PzoKav7dEEls6F5gKGj7-162">
          <mxGeometry relative="1" as="geometry">
            <Array as="points">
              <mxPoint x="1238" y="965" />
            </Array>
          </mxGeometry>
        </mxCell>
        <mxCell id="PzoKav7dEEls6F5gKGj7-291" value="关键词" style="text;html=1;align=center;verticalAlign=middle;resizable=0;points=[];autosize=1;strokeColor=none;fillColor=none;" vertex="1" parent="1">
          <mxGeometry x="1130" y="918" width="60" height="30" as="geometry" />
        </mxCell>
        <mxCell id="PzoKav7dEEls6F5gKGj7-292" value="查询文献" style="text;html=1;align=center;verticalAlign=middle;resizable=0;points=[];autosize=1;strokeColor=none;fillColor=none;" vertex="1" parent="1">
          <mxGeometry x="1265" y="938" width="70" height="30" as="geometry" />
        </mxCell>
        <mxCell id="PzoKav7dEEls6F5gKGj7-293" style="edgeStyle=orthogonalEdgeStyle;rounded=0;orthogonalLoop=1;jettySize=auto;html=1;curved=0;exitX=0;exitY=1;exitDx=0;exitDy=-5;exitPerimeter=0;" edge="1" parent="1" source="PzoKav7dEEls6F5gKGj7-162">
          <mxGeometry relative="1" as="geometry">
            <mxPoint x="1240" y="1015" as="targetPoint" />
            <Array as="points">
              <mxPoint x="1280" y="1015" />
              <mxPoint x="1280" y="1015" />
            </Array>
          </mxGeometry>
        </mxCell>
        <mxCell id="PzoKav7dEEls6F5gKGj7-294" value="文献列表信息" style="text;html=1;align=center;verticalAlign=middle;resizable=0;points=[];autosize=1;strokeColor=none;fillColor=none;" vertex="1" parent="1">
          <mxGeometry x="1250" y="988" width="100" height="30" as="geometry" />
        </mxCell>
        <mxCell id="PzoKav7dEEls6F5gKGj7-297" style="edgeStyle=orthogonalEdgeStyle;rounded=0;orthogonalLoop=1;jettySize=auto;html=1;curved=0;exitX=0;exitY=1;exitDx=0;exitDy=-5;exitPerimeter=0;" edge="1" parent="1" source="PzoKav7dEEls6F5gKGj7-167" target="PzoKav7dEEls6F5gKGj7-159">
          <mxGeometry relative="1" as="geometry">
            <mxPoint x="1110" y="1020" as="targetPoint" />
            <Array as="points">
              <mxPoint x="1150" y="1025" />
              <mxPoint x="1150" y="1025" />
            </Array>
          </mxGeometry>
        </mxCell>
        <mxCell id="PzoKav7dEEls6F5gKGj7-298" value="文献列表" style="text;html=1;align=center;verticalAlign=middle;resizable=0;points=[];autosize=1;strokeColor=none;fillColor=none;" vertex="1" parent="1">
          <mxGeometry x="1125" y="998" width="70" height="30" as="geometry" />
        </mxCell>
        <mxCell id="PzoKav7dEEls6F5gKGj7-300" value="loop" style="shape=umlFrame;whiteSpace=wrap;html=1;pointerEvents=0;recursiveResize=0;container=1;collapsible=0;width=50;" vertex="1" parent="1">
          <mxGeometry x="865" y="893" width="575" height="167" as="geometry" />
        </mxCell>
        <mxCell id="PzoKav7dEEls6F5gKGj7-303" style="edgeStyle=orthogonalEdgeStyle;rounded=0;orthogonalLoop=1;jettySize=auto;html=1;curved=0;exitX=1;exitY=0;exitDx=0;exitDy=5;exitPerimeter=0;entryX=0;entryY=0;entryDx=0;entryDy=5;entryPerimeter=0;" edge="1" parent="1" source="PzoKav7dEEls6F5gKGj7-299" target="PzoKav7dEEls6F5gKGj7-302">
          <mxGeometry relative="1" as="geometry">
            <Array as="points">
              <mxPoint x="928" y="1085" />
            </Array>
          </mxGeometry>
        </mxCell>
        <mxCell id="PzoKav7dEEls6F5gKGj7-304" value="点击文献" style="text;html=1;align=center;verticalAlign=middle;resizable=0;points=[];autosize=1;strokeColor=none;fillColor=none;" vertex="1" parent="1">
          <mxGeometry x="970" y="1060" width="70" height="30" as="geometry" />
        </mxCell>
        <mxCell id="PzoKav7dEEls6F5gKGj7-307" style="edgeStyle=orthogonalEdgeStyle;rounded=0;orthogonalLoop=1;jettySize=auto;html=1;curved=0;exitX=1;exitY=0;exitDx=0;exitDy=5;exitPerimeter=0;entryX=0;entryY=0;entryDx=0;entryDy=5;entryPerimeter=0;" edge="1" parent="1" source="PzoKav7dEEls6F5gKGj7-302" target="PzoKav7dEEls6F5gKGj7-305">
          <mxGeometry relative="1" as="geometry">
            <Array as="points">
              <mxPoint x="1108" y="1100" />
            </Array>
          </mxGeometry>
        </mxCell>
        <mxCell id="PzoKav7dEEls6F5gKGj7-308" value="文献ID" style="text;html=1;align=center;verticalAlign=middle;resizable=0;points=[];autosize=1;strokeColor=none;fillColor=none;" vertex="1" parent="1">
          <mxGeometry x="1130" y="1078" width="60" height="30" as="geometry" />
        </mxCell>
        <mxCell id="PzoKav7dEEls6F5gKGj7-309" style="edgeStyle=orthogonalEdgeStyle;rounded=0;orthogonalLoop=1;jettySize=auto;html=1;curved=0;exitX=1;exitY=0;exitDx=0;exitDy=5;exitPerimeter=0;entryX=0;entryY=0;entryDx=0;entryDy=5;entryPerimeter=0;" edge="1" parent="1" source="PzoKav7dEEls6F5gKGj7-305" target="PzoKav7dEEls6F5gKGj7-306">
          <mxGeometry relative="1" as="geometry">
            <Array as="points">
              <mxPoint x="1238" y="1115" />
            </Array>
          </mxGeometry>
        </mxCell>
        <mxCell id="PzoKav7dEEls6F5gKGj7-310" value="查询文献信息" style="text;html=1;align=center;verticalAlign=middle;resizable=0;points=[];autosize=1;strokeColor=none;fillColor=none;" vertex="1" parent="1">
          <mxGeometry x="1250" y="1088" width="100" height="30" as="geometry" />
        </mxCell>
        <mxCell id="PzoKav7dEEls6F5gKGj7-311" style="edgeStyle=orthogonalEdgeStyle;rounded=0;orthogonalLoop=1;jettySize=auto;html=1;curved=0;exitX=0;exitY=1;exitDx=0;exitDy=-5;exitPerimeter=0;" edge="1" parent="1" source="PzoKav7dEEls6F5gKGj7-306" target="PzoKav7dEEls6F5gKGj7-305">
          <mxGeometry relative="1" as="geometry">
            <Array as="points">
              <mxPoint x="1280" y="1165" />
              <mxPoint x="1280" y="1165" />
            </Array>
          </mxGeometry>
        </mxCell>
        <mxCell id="PzoKav7dEEls6F5gKGj7-312" value="返回文献信息" style="text;html=1;align=center;verticalAlign=middle;resizable=0;points=[];autosize=1;strokeColor=none;fillColor=none;" vertex="1" parent="1">
          <mxGeometry x="1250" y="1138" width="100" height="30" as="geometry" />
        </mxCell>
        <mxCell id="PzoKav7dEEls6F5gKGj7-313" style="edgeStyle=orthogonalEdgeStyle;rounded=0;orthogonalLoop=1;jettySize=auto;html=1;curved=0;exitX=0;exitY=1;exitDx=0;exitDy=-5;exitPerimeter=0;" edge="1" parent="1" source="PzoKav7dEEls6F5gKGj7-305" target="PzoKav7dEEls6F5gKGj7-302">
          <mxGeometry relative="1" as="geometry">
            <Array as="points">
              <mxPoint x="1140" y="1180" />
              <mxPoint x="1140" y="1180" />
            </Array>
          </mxGeometry>
        </mxCell>
        <mxCell id="PzoKav7dEEls6F5gKGj7-314" value="显示文献内容" style="text;html=1;align=center;verticalAlign=middle;resizable=0;points=[];autosize=1;strokeColor=none;fillColor=none;" vertex="1" parent="1">
          <mxGeometry x="1120" y="1158" width="100" height="30" as="geometry" />
        </mxCell>
        <mxCell id="PzoKav7dEEls6F5gKGj7-315" value="Author.html" style="shape=umlLifeline;perimeter=lifelinePerimeter;whiteSpace=wrap;html=1;container=1;dropTarget=0;collapsible=0;recursiveResize=0;outlineConnect=0;portConstraint=eastwest;newEdgeStyle={&quot;edgeStyle&quot;:&quot;elbowEdgeStyle&quot;,&quot;elbow&quot;:&quot;vertical&quot;,&quot;curved&quot;:0,&quot;rounded&quot;:0};" vertex="1" parent="1">
          <mxGeometry x="1750" y="-50" width="100" height="790" as="geometry" />
        </mxCell>
        <mxCell id="PzoKav7dEEls6F5gKGj7-316" value="" style="html=1;points=[[0,0,0,0,5],[0,1,0,0,-5],[1,0,0,0,5],[1,1,0,0,-5]];perimeter=orthogonalPerimeter;outlineConnect=0;targetShapes=umlLifeline;portConstraint=eastwest;newEdgeStyle={&quot;curved&quot;:0,&quot;rounded&quot;:0};" vertex="1" parent="PzoKav7dEEls6F5gKGj7-315">
          <mxGeometry x="45" y="80" width="10" height="120" as="geometry" />
        </mxCell>
        <mxCell id="PzoKav7dEEls6F5gKGj7-317" value="" style="html=1;points=[[0,0,0,0,5],[0,1,0,0,-5],[1,0,0,0,5],[1,1,0,0,-5]];perimeter=orthogonalPerimeter;outlineConnect=0;targetShapes=umlLifeline;portConstraint=eastwest;newEdgeStyle={&quot;curved&quot;:0,&quot;rounded&quot;:0};" vertex="1" parent="PzoKav7dEEls6F5gKGj7-315">
          <mxGeometry x="45" y="240" width="10" height="120" as="geometry" />
        </mxCell>
        <mxCell id="PzoKav7dEEls6F5gKGj7-318" value="database" style="shape=umlLifeline;perimeter=lifelinePerimeter;whiteSpace=wrap;html=1;container=1;dropTarget=0;collapsible=0;recursiveResize=0;outlineConnect=0;portConstraint=eastwest;newEdgeStyle={&quot;edgeStyle&quot;:&quot;elbowEdgeStyle&quot;,&quot;elbow&quot;:&quot;vertical&quot;,&quot;curved&quot;:0,&quot;rounded&quot;:0};" vertex="1" parent="1">
          <mxGeometry x="2035" y="-50" width="100" height="790" as="geometry" />
        </mxCell>
        <mxCell id="PzoKav7dEEls6F5gKGj7-319" value="" style="html=1;points=[[0,0,0,0,5],[0,1,0,0,-5],[1,0,0,0,5],[1,1,0,0,-5]];perimeter=orthogonalPerimeter;outlineConnect=0;targetShapes=umlLifeline;portConstraint=eastwest;newEdgeStyle={&quot;curved&quot;:0,&quot;rounded&quot;:0};" vertex="1" parent="PzoKav7dEEls6F5gKGj7-318">
          <mxGeometry x="45" y="120" width="10" height="60" as="geometry" />
        </mxCell>
        <mxCell id="PzoKav7dEEls6F5gKGj7-320" value="" style="html=1;points=[[0,0,0,0,5],[0,1,0,0,-5],[1,0,0,0,5],[1,1,0,0,-5]];perimeter=orthogonalPerimeter;outlineConnect=0;targetShapes=umlLifeline;portConstraint=eastwest;newEdgeStyle={&quot;curved&quot;:0,&quot;rounded&quot;:0};" vertex="1" parent="PzoKav7dEEls6F5gKGj7-318">
          <mxGeometry x="45" y="270" width="10" height="60" as="geometry" />
        </mxCell>
        <mxCell id="PzoKav7dEEls6F5gKGj7-337" value="" style="html=1;points=[[0,0,0,0,5],[0,1,0,0,-5],[1,0,0,0,5],[1,1,0,0,-5]];perimeter=orthogonalPerimeter;outlineConnect=0;targetShapes=umlLifeline;portConstraint=eastwest;newEdgeStyle={&quot;curved&quot;:0,&quot;rounded&quot;:0};" vertex="1" parent="PzoKav7dEEls6F5gKGj7-318">
          <mxGeometry x="-240" y="240" width="10" height="120" as="geometry" />
        </mxCell>
        <mxCell id="PzoKav7dEEls6F5gKGj7-338" value="" style="html=1;points=[[0,0,0,0,5],[0,1,0,0,-5],[1,0,0,0,5],[1,1,0,0,-5]];perimeter=orthogonalPerimeter;outlineConnect=0;targetShapes=umlLifeline;portConstraint=eastwest;newEdgeStyle={&quot;curved&quot;:0,&quot;rounded&quot;:0};" vertex="1" parent="PzoKav7dEEls6F5gKGj7-318">
          <mxGeometry x="45" y="270" width="10" height="60" as="geometry" />
        </mxCell>
        <mxCell id="PzoKav7dEEls6F5gKGj7-339" value="" style="html=1;points=[[0,0,0,0,5],[0,1,0,0,-5],[1,0,0,0,5],[1,1,0,0,-5]];perimeter=orthogonalPerimeter;outlineConnect=0;targetShapes=umlLifeline;portConstraint=eastwest;newEdgeStyle={&quot;curved&quot;:0,&quot;rounded&quot;:0};" vertex="1" parent="PzoKav7dEEls6F5gKGj7-318">
          <mxGeometry x="-420" y="230" width="10" height="80" as="geometry" />
        </mxCell>
        <mxCell id="PzoKav7dEEls6F5gKGj7-340" value="" style="html=1;points=[[0,0,0,0,5],[0,1,0,0,-5],[1,0,0,0,5],[1,1,0,0,-5]];perimeter=orthogonalPerimeter;outlineConnect=0;targetShapes=umlLifeline;portConstraint=eastwest;newEdgeStyle={&quot;curved&quot;:0,&quot;rounded&quot;:0};" vertex="1" parent="PzoKav7dEEls6F5gKGj7-318">
          <mxGeometry x="-110" y="255" width="10" height="90" as="geometry" />
        </mxCell>
        <mxCell id="PzoKav7dEEls6F5gKGj7-341" style="edgeStyle=orthogonalEdgeStyle;rounded=0;orthogonalLoop=1;jettySize=auto;html=1;curved=0;exitX=1;exitY=0;exitDx=0;exitDy=5;exitPerimeter=0;entryX=0;entryY=0;entryDx=0;entryDy=5;entryPerimeter=0;" edge="1" parent="PzoKav7dEEls6F5gKGj7-318" source="PzoKav7dEEls6F5gKGj7-339" target="PzoKav7dEEls6F5gKGj7-337">
          <mxGeometry relative="1" as="geometry">
            <Array as="points">
              <mxPoint x="-409.5" y="245" />
            </Array>
          </mxGeometry>
        </mxCell>
        <mxCell id="PzoKav7dEEls6F5gKGj7-342" style="edgeStyle=orthogonalEdgeStyle;rounded=0;orthogonalLoop=1;jettySize=auto;html=1;curved=0;exitX=1;exitY=0;exitDx=0;exitDy=5;exitPerimeter=0;entryX=0;entryY=0;entryDx=0;entryDy=5;entryPerimeter=0;" edge="1" parent="PzoKav7dEEls6F5gKGj7-318" source="PzoKav7dEEls6F5gKGj7-337" target="PzoKav7dEEls6F5gKGj7-340">
          <mxGeometry relative="1" as="geometry">
            <Array as="points">
              <mxPoint x="-229.5" y="260" />
            </Array>
          </mxGeometry>
        </mxCell>
        <mxCell id="PzoKav7dEEls6F5gKGj7-343" value="作者ID" style="text;html=1;align=center;verticalAlign=middle;resizable=0;points=[];autosize=1;strokeColor=none;fillColor=none;" vertex="1" parent="PzoKav7dEEls6F5gKGj7-318">
          <mxGeometry x="-207.5" y="238" width="60" height="30" as="geometry" />
        </mxCell>
        <mxCell id="PzoKav7dEEls6F5gKGj7-344" style="edgeStyle=orthogonalEdgeStyle;rounded=0;orthogonalLoop=1;jettySize=auto;html=1;curved=0;exitX=1;exitY=0;exitDx=0;exitDy=5;exitPerimeter=0;entryX=0;entryY=0;entryDx=0;entryDy=5;entryPerimeter=0;" edge="1" parent="PzoKav7dEEls6F5gKGj7-318" source="PzoKav7dEEls6F5gKGj7-340" target="PzoKav7dEEls6F5gKGj7-338">
          <mxGeometry relative="1" as="geometry">
            <Array as="points">
              <mxPoint x="-99.5" y="275" />
            </Array>
          </mxGeometry>
        </mxCell>
        <mxCell id="PzoKav7dEEls6F5gKGj7-345" value="查询合作者" style="text;html=1;align=center;verticalAlign=middle;resizable=0;points=[];autosize=1;strokeColor=none;fillColor=none;" vertex="1" parent="PzoKav7dEEls6F5gKGj7-318">
          <mxGeometry x="-77.5" y="248" width="80" height="30" as="geometry" />
        </mxCell>
        <mxCell id="PzoKav7dEEls6F5gKGj7-346" style="edgeStyle=orthogonalEdgeStyle;rounded=0;orthogonalLoop=1;jettySize=auto;html=1;curved=0;exitX=0;exitY=1;exitDx=0;exitDy=-5;exitPerimeter=0;" edge="1" parent="PzoKav7dEEls6F5gKGj7-318" source="PzoKav7dEEls6F5gKGj7-338" target="PzoKav7dEEls6F5gKGj7-340">
          <mxGeometry relative="1" as="geometry">
            <Array as="points">
              <mxPoint x="-57.5" y="325" />
              <mxPoint x="-57.5" y="325" />
            </Array>
          </mxGeometry>
        </mxCell>
        <mxCell id="PzoKav7dEEls6F5gKGj7-347" value="返回作者信息" style="text;html=1;align=center;verticalAlign=middle;resizable=0;points=[];autosize=1;strokeColor=none;fillColor=none;" vertex="1" parent="PzoKav7dEEls6F5gKGj7-318">
          <mxGeometry x="-87.5" y="298" width="100" height="30" as="geometry" />
        </mxCell>
        <mxCell id="PzoKav7dEEls6F5gKGj7-348" style="edgeStyle=orthogonalEdgeStyle;rounded=0;orthogonalLoop=1;jettySize=auto;html=1;curved=0;exitX=0;exitY=1;exitDx=0;exitDy=-5;exitPerimeter=0;" edge="1" parent="PzoKav7dEEls6F5gKGj7-318" source="PzoKav7dEEls6F5gKGj7-340" target="PzoKav7dEEls6F5gKGj7-337">
          <mxGeometry relative="1" as="geometry">
            <Array as="points">
              <mxPoint x="-197.5" y="340" />
              <mxPoint x="-197.5" y="340" />
            </Array>
          </mxGeometry>
        </mxCell>
        <mxCell id="PzoKav7dEEls6F5gKGj7-417" value="" style="html=1;points=[[0,0,0,0,5],[0,1,0,0,-5],[1,0,0,0,5],[1,1,0,0,-5]];perimeter=orthogonalPerimeter;outlineConnect=0;targetShapes=umlLifeline;portConstraint=eastwest;newEdgeStyle={&quot;curved&quot;:0,&quot;rounded&quot;:0};" vertex="1" parent="PzoKav7dEEls6F5gKGj7-318">
          <mxGeometry x="45" y="470" width="10" height="60" as="geometry" />
        </mxCell>
        <mxCell id="PzoKav7dEEls6F5gKGj7-321" value="" style="shape=umlLifeline;perimeter=lifelinePerimeter;whiteSpace=wrap;html=1;container=1;dropTarget=0;collapsible=0;recursiveResize=0;outlineConnect=0;portConstraint=eastwest;newEdgeStyle={&quot;curved&quot;:0,&quot;rounded&quot;:0};participant=umlActor;" vertex="1" parent="1">
          <mxGeometry x="1610" y="-50" width="20" height="790" as="geometry" />
        </mxCell>
        <mxCell id="PzoKav7dEEls6F5gKGj7-322" value="" style="html=1;points=[[0,0,0,0,5],[0,1,0,0,-5],[1,0,0,0,5],[1,1,0,0,-5]];perimeter=orthogonalPerimeter;outlineConnect=0;targetShapes=umlLifeline;portConstraint=eastwest;newEdgeStyle={&quot;curved&quot;:0,&quot;rounded&quot;:0};" vertex="1" parent="PzoKav7dEEls6F5gKGj7-321">
          <mxGeometry x="2.5" y="80" width="10" height="80" as="geometry" />
        </mxCell>
        <mxCell id="PzoKav7dEEls6F5gKGj7-323" value="" style="html=1;points=[[0,0,0,0,5],[0,1,0,0,-5],[1,0,0,0,5],[1,1,0,0,-5]];perimeter=orthogonalPerimeter;outlineConnect=0;targetShapes=umlLifeline;portConstraint=eastwest;newEdgeStyle={&quot;curved&quot;:0,&quot;rounded&quot;:0};" vertex="1" parent="PzoKav7dEEls6F5gKGj7-321">
          <mxGeometry x="5" y="230" width="10" height="80" as="geometry" />
        </mxCell>
        <mxCell id="PzoKav7dEEls6F5gKGj7-324" value="Author.py" style="shape=umlLifeline;perimeter=lifelinePerimeter;whiteSpace=wrap;html=1;container=1;dropTarget=0;collapsible=0;recursiveResize=0;outlineConnect=0;portConstraint=eastwest;newEdgeStyle={&quot;edgeStyle&quot;:&quot;elbowEdgeStyle&quot;,&quot;elbow&quot;:&quot;vertical&quot;,&quot;curved&quot;:0,&quot;rounded&quot;:0};" vertex="1" parent="1">
          <mxGeometry x="1880" y="-50" width="100" height="790" as="geometry" />
        </mxCell>
        <mxCell id="PzoKav7dEEls6F5gKGj7-325" value="" style="html=1;points=[[0,0,0,0,5],[0,1,0,0,-5],[1,0,0,0,5],[1,1,0,0,-5]];perimeter=orthogonalPerimeter;outlineConnect=0;targetShapes=umlLifeline;portConstraint=eastwest;newEdgeStyle={&quot;curved&quot;:0,&quot;rounded&quot;:0};" vertex="1" parent="PzoKav7dEEls6F5gKGj7-324">
          <mxGeometry x="45" y="100" width="10" height="90" as="geometry" />
        </mxCell>
        <mxCell id="PzoKav7dEEls6F5gKGj7-326" value="" style="html=1;points=[[0,0,0,0,5],[0,1,0,0,-5],[1,0,0,0,5],[1,1,0,0,-5]];perimeter=orthogonalPerimeter;outlineConnect=0;targetShapes=umlLifeline;portConstraint=eastwest;newEdgeStyle={&quot;curved&quot;:0,&quot;rounded&quot;:0};" vertex="1" parent="PzoKav7dEEls6F5gKGj7-324">
          <mxGeometry x="45" y="255" width="10" height="90" as="geometry" />
        </mxCell>
        <mxCell id="PzoKav7dEEls6F5gKGj7-412" value="" style="html=1;points=[[0,0,0,0,5],[0,1,0,0,-5],[1,0,0,0,5],[1,1,0,0,-5]];perimeter=orthogonalPerimeter;outlineConnect=0;targetShapes=umlLifeline;portConstraint=eastwest;newEdgeStyle={&quot;curved&quot;:0,&quot;rounded&quot;:0};" vertex="1" parent="PzoKav7dEEls6F5gKGj7-324">
          <mxGeometry x="45" y="450" width="10" height="90" as="geometry" />
        </mxCell>
        <mxCell id="PzoKav7dEEls6F5gKGj7-327" style="edgeStyle=orthogonalEdgeStyle;rounded=0;orthogonalLoop=1;jettySize=auto;html=1;curved=0;exitX=1;exitY=0;exitDx=0;exitDy=5;exitPerimeter=0;entryX=0;entryY=0;entryDx=0;entryDy=5;entryPerimeter=0;" edge="1" parent="1" source="PzoKav7dEEls6F5gKGj7-322" target="PzoKav7dEEls6F5gKGj7-316">
          <mxGeometry relative="1" as="geometry" />
        </mxCell>
        <mxCell id="PzoKav7dEEls6F5gKGj7-328" value="&lt;span style=&quot;white-space: pre;&quot;&gt;&#x9;&lt;/span&gt;点击作者名" style="text;html=1;align=center;verticalAlign=middle;resizable=0;points=[];autosize=1;strokeColor=none;fillColor=none;" vertex="1" parent="1">
          <mxGeometry x="1625" y="8" width="110" height="30" as="geometry" />
        </mxCell>
        <mxCell id="PzoKav7dEEls6F5gKGj7-329" style="edgeStyle=orthogonalEdgeStyle;rounded=0;orthogonalLoop=1;jettySize=auto;html=1;curved=0;exitX=1;exitY=0;exitDx=0;exitDy=5;exitPerimeter=0;entryX=0;entryY=0;entryDx=0;entryDy=5;entryPerimeter=0;" edge="1" parent="1" source="PzoKav7dEEls6F5gKGj7-316" target="PzoKav7dEEls6F5gKGj7-325">
          <mxGeometry relative="1" as="geometry">
            <Array as="points">
              <mxPoint x="1805" y="55" />
            </Array>
          </mxGeometry>
        </mxCell>
        <mxCell id="PzoKav7dEEls6F5gKGj7-330" value="作者ID" style="text;html=1;align=center;verticalAlign=middle;resizable=0;points=[];autosize=1;strokeColor=none;fillColor=none;" vertex="1" parent="1">
          <mxGeometry x="1820" y="28" width="60" height="30" as="geometry" />
        </mxCell>
        <mxCell id="PzoKav7dEEls6F5gKGj7-331" style="edgeStyle=orthogonalEdgeStyle;rounded=0;orthogonalLoop=1;jettySize=auto;html=1;curved=0;exitX=1;exitY=0;exitDx=0;exitDy=5;exitPerimeter=0;entryX=0;entryY=0;entryDx=0;entryDy=5;entryPerimeter=0;" edge="1" parent="1" source="PzoKav7dEEls6F5gKGj7-325" target="PzoKav7dEEls6F5gKGj7-319">
          <mxGeometry relative="1" as="geometry">
            <Array as="points">
              <mxPoint x="1935" y="75" />
            </Array>
          </mxGeometry>
        </mxCell>
        <mxCell id="PzoKav7dEEls6F5gKGj7-332" value="查询作者" style="text;html=1;align=center;verticalAlign=middle;resizable=0;points=[];autosize=1;strokeColor=none;fillColor=none;" vertex="1" parent="1">
          <mxGeometry x="1965" y="48" width="70" height="30" as="geometry" />
        </mxCell>
        <mxCell id="PzoKav7dEEls6F5gKGj7-333" style="edgeStyle=orthogonalEdgeStyle;rounded=0;orthogonalLoop=1;jettySize=auto;html=1;curved=0;exitX=0;exitY=1;exitDx=0;exitDy=-5;exitPerimeter=0;sourcePerimeterSpacing=11;" edge="1" parent="1" source="PzoKav7dEEls6F5gKGj7-319" target="PzoKav7dEEls6F5gKGj7-324">
          <mxGeometry relative="1" as="geometry">
            <Array as="points">
              <mxPoint x="1980" y="125" />
              <mxPoint x="1980" y="125" />
            </Array>
          </mxGeometry>
        </mxCell>
        <mxCell id="PzoKav7dEEls6F5gKGj7-334" value="返回作者信息" style="text;html=1;align=center;verticalAlign=middle;resizable=0;points=[];autosize=1;strokeColor=none;fillColor=none;" vertex="1" parent="1">
          <mxGeometry x="1950" y="98" width="100" height="30" as="geometry" />
        </mxCell>
        <mxCell id="PzoKav7dEEls6F5gKGj7-335" style="edgeStyle=orthogonalEdgeStyle;rounded=0;orthogonalLoop=1;jettySize=auto;html=1;curved=0;exitX=0;exitY=1;exitDx=0;exitDy=-5;exitPerimeter=0;" edge="1" parent="1" source="PzoKav7dEEls6F5gKGj7-325" target="PzoKav7dEEls6F5gKGj7-315">
          <mxGeometry relative="1" as="geometry">
            <Array as="points">
              <mxPoint x="1925" y="140" />
            </Array>
          </mxGeometry>
        </mxCell>
        <mxCell id="PzoKav7dEEls6F5gKGj7-336" value="显示作者主页" style="text;html=1;align=center;verticalAlign=middle;resizable=0;points=[];autosize=1;strokeColor=none;fillColor=none;" vertex="1" parent="1">
          <mxGeometry x="1810" y="118" width="100" height="30" as="geometry" />
        </mxCell>
        <mxCell id="PzoKav7dEEls6F5gKGj7-350" value="Opt" style="shape=umlFrame;whiteSpace=wrap;html=1;pointerEvents=0;recursiveResize=0;container=1;collapsible=0;width=50;" vertex="1" parent="1">
          <mxGeometry x="1560" y="158" width="590" height="192" as="geometry" />
        </mxCell>
        <mxCell id="PzoKav7dEEls6F5gKGj7-349" value="显示作者主页" style="text;html=1;align=center;verticalAlign=middle;resizable=0;points=[];autosize=1;strokeColor=none;fillColor=none;" vertex="1" parent="PzoKav7dEEls6F5gKGj7-350">
          <mxGeometry x="250" y="102" width="100" height="30" as="geometry" />
        </mxCell>
        <mxCell id="PzoKav7dEEls6F5gKGj7-352" value="Opt" style="shape=umlFrame;whiteSpace=wrap;html=1;pointerEvents=0;recursiveResize=0;container=1;collapsible=0;width=50;" vertex="1" parent="1">
          <mxGeometry x="1560" y="542" width="590" height="192" as="geometry" />
        </mxCell>
        <mxCell id="PzoKav7dEEls6F5gKGj7-407" value="" style="html=1;points=[[0,0,0,0,5],[0,1,0,0,-5],[1,0,0,0,5],[1,1,0,0,-5]];perimeter=orthogonalPerimeter;outlineConnect=0;targetShapes=umlLifeline;portConstraint=eastwest;newEdgeStyle={&quot;curved&quot;:0,&quot;rounded&quot;:0};" vertex="1" parent="PzoKav7dEEls6F5gKGj7-352">
          <mxGeometry x="55" y="18" width="10" height="80" as="geometry" />
        </mxCell>
        <mxCell id="PzoKav7dEEls6F5gKGj7-409" value="" style="html=1;points=[[0,0,0,0,5],[0,1,0,0,-5],[1,0,0,0,5],[1,1,0,0,-5]];perimeter=orthogonalPerimeter;outlineConnect=0;targetShapes=umlLifeline;portConstraint=eastwest;newEdgeStyle={&quot;curved&quot;:0,&quot;rounded&quot;:0};" vertex="1" parent="PzoKav7dEEls6F5gKGj7-352">
          <mxGeometry x="235" y="28" width="10" height="120" as="geometry" />
        </mxCell>
        <mxCell id="PzoKav7dEEls6F5gKGj7-436" style="edgeStyle=orthogonalEdgeStyle;rounded=0;orthogonalLoop=1;jettySize=auto;html=1;curved=0;exitX=0;exitY=1;exitDx=0;exitDy=-5;exitPerimeter=0;" edge="1" parent="PzoKav7dEEls6F5gKGj7-352" source="PzoKav7dEEls6F5gKGj7-415" target="PzoKav7dEEls6F5gKGj7-409">
          <mxGeometry relative="1" as="geometry">
            <Array as="points">
              <mxPoint x="270" y="123" />
              <mxPoint x="270" y="123" />
            </Array>
          </mxGeometry>
        </mxCell>
        <mxCell id="PzoKav7dEEls6F5gKGj7-415" value="" style="html=1;points=[[0,0,0,0,5],[0,1,0,0,-5],[1,0,0,0,5],[1,1,0,0,-5]];perimeter=orthogonalPerimeter;outlineConnect=0;targetShapes=umlLifeline;portConstraint=eastwest;newEdgeStyle={&quot;curved&quot;:0,&quot;rounded&quot;:0};" vertex="1" parent="PzoKav7dEEls6F5gKGj7-352">
          <mxGeometry x="365" y="38" width="10" height="90" as="geometry" />
        </mxCell>
        <mxCell id="PzoKav7dEEls6F5gKGj7-416" value="" style="html=1;points=[[0,0,0,0,5],[0,1,0,0,-5],[1,0,0,0,5],[1,1,0,0,-5]];perimeter=orthogonalPerimeter;outlineConnect=0;targetShapes=umlLifeline;portConstraint=eastwest;newEdgeStyle={&quot;curved&quot;:0,&quot;rounded&quot;:0};" vertex="1" parent="PzoKav7dEEls6F5gKGj7-352">
          <mxGeometry x="520" y="53" width="10" height="60" as="geometry" />
        </mxCell>
        <mxCell id="PzoKav7dEEls6F5gKGj7-419" style="edgeStyle=orthogonalEdgeStyle;rounded=0;orthogonalLoop=1;jettySize=auto;html=1;curved=0;entryX=0;entryY=0;entryDx=0;entryDy=5;entryPerimeter=0;" edge="1" parent="PzoKav7dEEls6F5gKGj7-352">
          <mxGeometry relative="1" as="geometry">
            <Array as="points">
              <mxPoint x="100" y="28" />
              <mxPoint x="100" y="28" />
            </Array>
            <mxPoint x="63" y="28" as="sourcePoint" />
            <mxPoint x="235" y="28" as="targetPoint" />
          </mxGeometry>
        </mxCell>
        <mxCell id="PzoKav7dEEls6F5gKGj7-422" value="点击发表年份" style="text;html=1;align=center;verticalAlign=middle;resizable=0;points=[];autosize=1;strokeColor=none;fillColor=none;" vertex="1" parent="PzoKav7dEEls6F5gKGj7-352">
          <mxGeometry x="90" width="100" height="30" as="geometry" />
        </mxCell>
        <mxCell id="PzoKav7dEEls6F5gKGj7-425" style="edgeStyle=orthogonalEdgeStyle;rounded=0;orthogonalLoop=1;jettySize=auto;html=1;curved=0;exitX=1;exitY=0;exitDx=0;exitDy=5;exitPerimeter=0;entryX=0;entryY=0;entryDx=0;entryDy=5;entryPerimeter=0;" edge="1" parent="PzoKav7dEEls6F5gKGj7-352">
          <mxGeometry relative="1" as="geometry">
            <Array as="points">
              <mxPoint x="245.5" y="45" />
            </Array>
            <mxPoint x="245" y="30" as="sourcePoint" />
            <mxPoint x="365" y="45" as="targetPoint" />
          </mxGeometry>
        </mxCell>
        <mxCell id="PzoKav7dEEls6F5gKGj7-426" value="作者ID、年份信息" style="text;html=1;align=center;verticalAlign=middle;resizable=0;points=[];autosize=1;strokeColor=none;fillColor=none;" vertex="1" parent="PzoKav7dEEls6F5gKGj7-352">
          <mxGeometry x="245" y="23" width="120" height="30" as="geometry" />
        </mxCell>
        <mxCell id="PzoKav7dEEls6F5gKGj7-432" style="edgeStyle=orthogonalEdgeStyle;rounded=0;orthogonalLoop=1;jettySize=auto;html=1;curved=0;exitX=1;exitY=0;exitDx=0;exitDy=5;exitPerimeter=0;entryX=0;entryY=0;entryDx=0;entryDy=5;entryPerimeter=0;" edge="1" parent="PzoKav7dEEls6F5gKGj7-352" source="PzoKav7dEEls6F5gKGj7-415" target="PzoKav7dEEls6F5gKGj7-416">
          <mxGeometry relative="1" as="geometry">
            <Array as="points">
              <mxPoint x="375" y="58" />
            </Array>
          </mxGeometry>
        </mxCell>
        <mxCell id="PzoKav7dEEls6F5gKGj7-433" value="查询作者对应年份文献" style="text;html=1;align=center;verticalAlign=middle;resizable=0;points=[];autosize=1;strokeColor=none;fillColor=none;" vertex="1" parent="PzoKav7dEEls6F5gKGj7-352">
          <mxGeometry x="370" y="30" width="140" height="30" as="geometry" />
        </mxCell>
        <mxCell id="PzoKav7dEEls6F5gKGj7-434" style="edgeStyle=orthogonalEdgeStyle;rounded=0;orthogonalLoop=1;jettySize=auto;html=1;curved=0;exitX=0;exitY=1;exitDx=0;exitDy=-5;exitPerimeter=0;" edge="1" parent="PzoKav7dEEls6F5gKGj7-352" source="PzoKav7dEEls6F5gKGj7-416">
          <mxGeometry relative="1" as="geometry">
            <mxPoint x="375" y="108" as="targetPoint" />
            <Array as="points">
              <mxPoint x="375" y="108" />
            </Array>
          </mxGeometry>
        </mxCell>
        <mxCell id="PzoKav7dEEls6F5gKGj7-437" value="显示文献列表" style="text;html=1;align=center;verticalAlign=middle;resizable=0;points=[];autosize=1;strokeColor=none;fillColor=none;" vertex="1" parent="PzoKav7dEEls6F5gKGj7-352">
          <mxGeometry x="255" y="98" width="100" height="30" as="geometry" />
        </mxCell>
        <mxCell id="PzoKav7dEEls6F5gKGj7-354" value="Opt" style="shape=umlFrame;whiteSpace=wrap;html=1;pointerEvents=0;recursiveResize=0;container=1;collapsible=0;width=50;" vertex="1" parent="1">
          <mxGeometry x="1560" y="350" width="590" height="192" as="geometry" />
        </mxCell>
        <mxCell id="PzoKav7dEEls6F5gKGj7-408" value="" style="html=1;points=[[0,0,0,0,5],[0,1,0,0,-5],[1,0,0,0,5],[1,1,0,0,-5]];perimeter=orthogonalPerimeter;outlineConnect=0;targetShapes=umlLifeline;portConstraint=eastwest;newEdgeStyle={&quot;curved&quot;:0,&quot;rounded&quot;:0};" vertex="1" parent="PzoKav7dEEls6F5gKGj7-354">
          <mxGeometry x="52.5" y="20" width="10" height="80" as="geometry" />
        </mxCell>
        <mxCell id="PzoKav7dEEls6F5gKGj7-410" value="" style="html=1;points=[[0,0,0,0,5],[0,1,0,0,-5],[1,0,0,0,5],[1,1,0,0,-5]];perimeter=orthogonalPerimeter;outlineConnect=0;targetShapes=umlLifeline;portConstraint=eastwest;newEdgeStyle={&quot;curved&quot;:0,&quot;rounded&quot;:0};" vertex="1" parent="PzoKav7dEEls6F5gKGj7-354">
          <mxGeometry x="235" y="36" width="10" height="120" as="geometry" />
        </mxCell>
        <mxCell id="PzoKav7dEEls6F5gKGj7-418" style="edgeStyle=orthogonalEdgeStyle;rounded=0;orthogonalLoop=1;jettySize=auto;html=1;curved=0;entryX=0;entryY=0;entryDx=0;entryDy=5;entryPerimeter=0;" edge="1" parent="PzoKav7dEEls6F5gKGj7-354" source="PzoKav7dEEls6F5gKGj7-408">
          <mxGeometry relative="1" as="geometry">
            <Array as="points">
              <mxPoint x="100" y="36" />
              <mxPoint x="100" y="36" />
            </Array>
            <mxPoint x="65" y="26" as="sourcePoint" />
            <mxPoint x="235" y="36" as="targetPoint" />
          </mxGeometry>
        </mxCell>
        <mxCell id="PzoKav7dEEls6F5gKGj7-421" value="点击论文题目" style="text;html=1;align=center;verticalAlign=middle;resizable=0;points=[];autosize=1;strokeColor=none;fillColor=none;" vertex="1" parent="PzoKav7dEEls6F5gKGj7-354">
          <mxGeometry x="90" y="10" width="100" height="30" as="geometry" />
        </mxCell>
        <mxCell id="PzoKav7dEEls6F5gKGj7-423" style="edgeStyle=orthogonalEdgeStyle;rounded=0;orthogonalLoop=1;jettySize=auto;html=1;curved=0;exitX=1;exitY=0;exitDx=0;exitDy=5;exitPerimeter=0;entryX=0;entryY=0;entryDx=0;entryDy=5;entryPerimeter=0;" edge="1" parent="PzoKav7dEEls6F5gKGj7-354">
          <mxGeometry relative="1" as="geometry">
            <Array as="points">
              <mxPoint x="245.5" y="58" />
            </Array>
            <mxPoint x="245" y="43" as="sourcePoint" />
            <mxPoint x="365" y="58" as="targetPoint" />
          </mxGeometry>
        </mxCell>
        <mxCell id="PzoKav7dEEls6F5gKGj7-424" value="文献ID" style="text;html=1;align=center;verticalAlign=middle;resizable=0;points=[];autosize=1;strokeColor=none;fillColor=none;" vertex="1" parent="PzoKav7dEEls6F5gKGj7-354">
          <mxGeometry x="267.5" y="36" width="60" height="30" as="geometry" />
        </mxCell>
        <mxCell id="PzoKav7dEEls6F5gKGj7-427" style="edgeStyle=orthogonalEdgeStyle;rounded=0;orthogonalLoop=1;jettySize=auto;html=1;curved=0;entryX=0;entryY=0;entryDx=0;entryDy=5;entryPerimeter=0;" edge="1" parent="PzoKav7dEEls6F5gKGj7-354">
          <mxGeometry relative="1" as="geometry">
            <Array as="points">
              <mxPoint x="380.5" y="68" />
            </Array>
            <mxPoint x="380" y="66" as="sourcePoint" />
            <mxPoint x="525" y="68" as="targetPoint" />
          </mxGeometry>
        </mxCell>
        <mxCell id="PzoKav7dEEls6F5gKGj7-428" value="查询文献信息" style="text;html=1;align=center;verticalAlign=middle;resizable=0;points=[];autosize=1;strokeColor=none;fillColor=none;" vertex="1" parent="PzoKav7dEEls6F5gKGj7-354">
          <mxGeometry x="392.5" y="45" width="100" height="30" as="geometry" />
        </mxCell>
        <mxCell id="PzoKav7dEEls6F5gKGj7-441" value="显示文献信息" style="text;html=1;align=center;verticalAlign=middle;resizable=0;points=[];autosize=1;strokeColor=none;fillColor=none;" vertex="1" parent="PzoKav7dEEls6F5gKGj7-354">
          <mxGeometry x="247.5" y="108" width="100" height="30" as="geometry" />
        </mxCell>
        <mxCell id="PzoKav7dEEls6F5gKGj7-420" value="点击合作者名" style="text;html=1;align=center;verticalAlign=middle;resizable=0;points=[];autosize=1;strokeColor=none;fillColor=none;" vertex="1" parent="1">
          <mxGeometry x="1640" y="168" width="100" height="30" as="geometry" />
        </mxCell>
        <mxCell id="PzoKav7dEEls6F5gKGj7-435" value="返回文献列表信息" style="text;html=1;align=center;verticalAlign=middle;resizable=0;points=[];autosize=1;strokeColor=none;fillColor=none;" vertex="1" parent="1">
          <mxGeometry x="1940" y="628" width="120" height="30" as="geometry" />
        </mxCell>
        <mxCell id="PzoKav7dEEls6F5gKGj7-438" style="edgeStyle=orthogonalEdgeStyle;rounded=0;orthogonalLoop=1;jettySize=auto;html=1;curved=0;exitX=0;exitY=1;exitDx=0;exitDy=-5;exitPerimeter=0;" edge="1" parent="1" source="PzoKav7dEEls6F5gKGj7-417" target="PzoKav7dEEls6F5gKGj7-412">
          <mxGeometry relative="1" as="geometry">
            <Array as="points">
              <mxPoint x="1970" y="475" />
              <mxPoint x="1970" y="475" />
            </Array>
          </mxGeometry>
        </mxCell>
        <mxCell id="PzoKav7dEEls6F5gKGj7-439" style="edgeStyle=orthogonalEdgeStyle;rounded=0;orthogonalLoop=1;jettySize=auto;html=1;curved=0;exitX=0;exitY=1;exitDx=0;exitDy=-5;exitPerimeter=0;" edge="1" parent="1" source="PzoKav7dEEls6F5gKGj7-412">
          <mxGeometry relative="1" as="geometry">
            <mxPoint x="1805" y="485" as="targetPoint" />
            <Array as="points">
              <mxPoint x="1805" y="485" />
            </Array>
          </mxGeometry>
        </mxCell>
        <mxCell id="PzoKav7dEEls6F5gKGj7-440" value="对应文献信息" style="text;html=1;align=center;verticalAlign=middle;resizable=0;points=[];autosize=1;strokeColor=none;fillColor=none;" vertex="1" parent="1">
          <mxGeometry x="1950" y="448" width="100" height="30" as="geometry" />
        </mxCell>
      </root>
    </mxGraphModel>
  </diagram>
</mxfile>
